<?xml version="1.0" encoding="utf-8"?>
<svg version="1.1" xmlns:xlink="http://www.w3.org/1999/xlink" width="327px" height="85px" xmlns="http://www.w3.org/2000/svg">
  <g transform="matrix(1 0 0 1 -18 -84 )">
    <path d="M 19 89  A 4 4 0 0 1 23 85 L 340 85  A 4 4 0 0 1 344 89 L 344 164  A 4 4 0 0 1 340 168 L 23 168  A 4 4 0 0 1 19 164 L 19 89  Z " fill-rule="nonzero" fill="#ffffff" stroke="none" />
    <path d="M 18.5 89  A 4.5 4.5 0 0 1 23 84.5 L 340 84.5  A 4.5 4.5 0 0 1 344.5 89 L 344.5 164  A 4.5 4.5 0 0 1 340 168.5 L 23 168.5  A 4.5 4.5 0 0 1 18.5 164 L 18.5 89  Z " stroke-width="1" stroke="#797979" fill="none" stroke-opacity="0.149019607843137" />
  </g>
</svg>