<?xml version="1.0" encoding="utf-8"?>
<svg version="1.1" xmlns:xlink="http://www.w3.org/1999/xlink" width="14px" height="14px" xmlns="http://www.w3.org/2000/svg">
  <g transform="matrix(1 0 0 1 -146 -200 )">
    <path d="M 7 10.5055  C 6.58578125 10.5055  6.25 10.84128125  6.25 11.2555  C 6.25 11.66971875  6.58578125 12.0055  7 12.0055  C 7.41421875 12.0055  7.75 11.66971875  7.75 11.2555  C 7.75 10.84128125  7.41421875 10.5055  7 10.5055  Z M 14 7  C 14 10.86  10.86 14  7 14  C 3.14 14  0 10.86  0 7  C 0 3.14  3.14 0  7 0  C 10.86 0  14 3.14  14 7  Z M 12.995515625 7  C 12.995515625 3.694  10.3055 1.004484375  7 1.004484375  C 3.694 1.004484375  1.004484375 3.694  1.004484375 7  C 1.004484375 10.3055  3.694 12.995515625  7 12.995515625  C 10.3055 12.995515625  12.995515625 10.305515625  12.995515625 7  Z M 7.500015625 9.025984375  C 7.500015625 9.302  7.276015625 9.526484375  7 9.526484375  C 6.723984375 9.526484375  6.5 9.302484375  6.5 9.0265  L 6.5 8.181  C 6.5 7.362984375  7.124984375 6.738  7.676984375 6.1865  C 8.08146875 5.7815  8.499984375 5.3635  8.499984375 5.03  C 8.499984375 4.1965  7.826984375 3.5185  7 3.5185  C 6.159015625 3.5185  5.5 4.1675  5.5 4.996  C 5.5 5.272  5.276015625 5.495984375  5 5.495984375  C 4.723984375 5.495984375  4.5 5.271984375  4.5 4.995984375  C 4.5 3.63  5.62146875 2.5185  7 2.5185  C 8.37853125 2.5185  9.5 3.645  9.5 5.03  C 9.5 5.7785  8.9325 6.345484375  8.384 6.894  C 7.949 7.328  7.500015625 7.777  7.500015625 8.180484375  L 7.500015625 9.025984375  Z " fill-rule="nonzero" fill="#000000" stroke="none" fill-opacity="0.376470588235294" transform="matrix(1 0 0 1 146 200 )" />
  </g>
</svg>