<?xml version="1.0" encoding="utf-8"?>
<svg version="1.1" xmlns:xlink="http://www.w3.org/1999/xlink" width="10px" height="19px" xmlns="http://www.w3.org/2000/svg">
  <g transform="matrix(1 0 0 1 -294 -19 )">
    <path d="M 0.256543371212121 18.5809552878788  C 0.40137451923612 18.7164402276335  0.596561662652738 18.7922633506179  0.799823143939395 18.7919997670455  C 1.0007606439394 18.7919997670455  1.20150420454546 18.7183110378788  1.35338053030303 18.5713020643939  L 9.05869935606061 11.1140039753788  C 9.51688803030303 10.6705821193182  9.76870954545455 10.0841304583333  9.76766238636364 9.46275035606061  C 9.76665401515152 8.84137025378788  9.51297090909091 8.25565549053031  9.05334723484849 7.81356003598485  L 1.35171284090909 0.405559678030305  C 1.05071382575758 0.116036706439395  0.559597916666667 0.113052303030305  0.254798143939394 0.39911191287879  C -0.0500016666666665 0.685097825757579  -0.0530655681818187 1.15165793939394  0.247972234848485 1.44121772348485  L 7.94956784090909 8.84921811742424  C 8.30230409090909 9.18848096590909  8.30319609848485 9.74136739962121  7.95158458333333 10.0816618977273  L 0.246343333333334 17.5389231382576  C -0.0537636742424235 17.8293672140152  -0.0491871969696969 18.2958904791667  0.256543371212121 18.5809552878788  Z " fill-rule="nonzero" fill="#000000" stroke="none" transform="matrix(1 0 0 1 294 19 )" />
  </g>
</svg>