<?xml version="1.0" encoding="utf-8"?>
<svg version="1.1" xmlns:xlink="http://www.w3.org/1999/xlink" width="51px" height="50px" xmlns="http://www.w3.org/2000/svg">
  <g transform="matrix(1 0 0 1 -43 -345 )">
    <path d="M 43.4982 42.2068  C 52.8233378645643 32.3038234478366  52.4018575443924 16.7293657881137  42.5547665556641 7.34523344433592  C 32.6517900937243 -1.97990450881588  17.0773324368817 -1.55842433749362  7.69319999999999 8.28866655566409  C -1.63193808659282 18.1916431502213  -1.21045776354063 33.7661010651475  8.63663344433593 43.1502334443359  C 18.5396099964994 52.4753713089002  34.1140676562222 52.0538909887283  43.4982 42.2068  Z M 39.2129665556641 38.069333444336  L 39.1447665556641 38.1489  C 35.6808246561066 34.865737911075  31.0898599050831 33.0357445493227  26.3172247015856 33.0357445493227  C 21.1937252348617 33.0357445493227  16.2959391097554 35.1438582302582  12.7741 38.865  L 12.6945334443359 38.7911165556641  C 15.975947657899 35.3274835809159  17.8048499206889 30.7377793789329  17.8048499206889 25.9665706615597  C 17.8048499206889 20.8444296046802  15.6978503918891 15.947818634245  11.9784334443359 12.4261334443359  L 12.0523165556641 12.3465665556641  C 15.5159495485283 15.6279808716203  20.105653824365 17.456883198324  24.8768626253105 17.456883198324  C 29.9990037617726 17.456883198324  34.8956148010574 15.3498836042599  38.4173 11.6304665556641  L 38.4968665556641 11.70435  C 35.2154522397079 15.1679829928642  33.3865499130041 19.757687268701  33.3865499130041 24.5288960696465  C 33.3865499130041 29.6510372061086  35.4935495070682 34.5476482453934  39.2129665556641 38.069333444336  Z " fill-rule="nonzero" fill="#d5382e" stroke="none" transform="matrix(1 0 0 1 43 345 )" />
  </g>
</svg>