<?xml version="1.0" encoding="utf-8"?>
<svg version="1.1" xmlns:xlink="http://www.w3.org/1999/xlink" width="182px" height="227px" xmlns="http://www.w3.org/2000/svg">
  <g transform="matrix(1 0 0 1 -85 -187 )">
    <path d="M 181 208.10095  C 181.201483408076 218.414349781618  172.843166337449 226.772666703249  162.529766555664 226  L 18.8437334443359 226  C 8.53163049435783 226.769540575063  0.175142720087933 218.413052949755  1 208.10095  L 1 18.7152334443359  C 0.175142536646106 8.40313036453352  8.53163036453351 0.0466425366461038  18.8437334443359 0  L 162.529766555664 0  C 172.843166467329 0.0435164083644537  181.201483591636 8.40183353267078  181 18.715233444336  L 181 208.10095  Z M 162.529766555664 5  L 18.8437334443359 5  C 10.9723330008231 4.46514495777488  4.59364495777488 10.8438330008231  5 18.7152334443359  L 5 208.10095  C 4.5936449577749 215.972350443513  10.9723330008231 222.351038486561  18.8437334443359 222  L 162.529766555664 222  C 170.401166999177 222.351038486561  176.779855042225 215.972350443513  176 208.10095  L 176 18.7152334443359  C 176.779855042225 10.8438330008231  170.401166999177 4.46514495777487  162.529766555664 5  Z " fill-rule="nonzero" fill="#e8d4ab" stroke="none" transform="matrix(1 0 0 1 85 187 )" />
  </g>
</svg>