<?xml version="1.0" encoding="utf-8"?>
<svg version="1.1" xmlns:xlink="http://www.w3.org/1999/xlink" width="22px" height="22px" xmlns="http://www.w3.org/2000/svg">
  <g transform="matrix(1 0 0 1 -307 -28 )">
    <path d="M 21.5380859375 19.8917860243056  L 12.6798095703889 11.0335096571944  L 21.5380859375 2.17523328977778  C 21.9852294921111 1.72808973516667  21.9852294921111 0.99090711775  21.5380859375 0.543763563444444  L 21.48974609375 0.495423719694444  C 21.0426025391389 0.0482801650833335  20.3054199217222 0.0482801650833335  19.8582763671111 0.495423719694444  L 11 9.36578504766667  L 2.14172363288889 0.495423719694444  C 1.69458007827778 0.0482801650833335  0.957397460861111 0.0482801650833335  0.51025390625 0.495423719694444  L 0.4619140625 0.543763563444444  C 0.0026855467222221 0.990907118055556  0.0026855467222221 1.72808973547222  0.4619140625 2.17523329008333  L 9.32019042961111 11.0335096571944  L 0.4619140625 19.8917860243056  C 0.014770507888889 20.3389295789167  0.014770507888889 21.0761121963333  0.4619140625 21.5232557509444  L 0.51025390625 21.5715955946944  C 0.957397460861111 22.0187391493056  1.69458007827778 22.0187391493056  2.14172363288889 21.5715955946944  L 11 12.7133192275833  L 19.8582763671111 21.5715955946944  C 20.3054199217222 22.0187391493056  21.0426025391389 22.0187391493056  21.48974609375 21.5715955946944  L 21.5380859375 21.5232557509444  C 21.9852294921111 21.0761121963333  21.9852294921111 20.3389295789167  21.5380859375 19.8917860243056  Z " fill-rule="nonzero" fill="#ffffff" stroke="none" transform="matrix(1 0 0 1 307 28 )" />
  </g>
</svg>