<?xml version="1.0" encoding="utf-8"?>
<svg version="1.1" xmlns:xlink="http://www.w3.org/1999/xlink" width="9px" height="19px" xmlns="http://www.w3.org/2000/svg">
  <g transform="matrix(1 0 0 1 -294 -45 )">
    <path d="M 7.90137675912709 15.6688455836898  C 7.73042516456997 17.7039854661163  6.60214459317073 18.692984259162  4.45242818218228 18.692984259162  C 2.31553319106547 18.692984259162  1.17443119979461 17.7039854052783  1.00347960523749 15.6732411309068  L 0.131626425673943 4.31074324012508  C 0.0600905458463097 3.28239674234147  0.410356718148317 2.27020318029045  1.09750297632862 1.51956868883052  C 1.96911959098852 0.563959359155065  3.19138810839722 0.0295361591740943  4.46524954290115 0.0470592760475288  C 5.69847368348632 0.0241075550109942  6.88561898140593 0.52873150811512  7.74324652528883 1.4404487780863  C 8.45329349306177 2.19870773087752  8.82884918840334 3.22395329514141  8.78177745335045 4.27557880155097  L 7.90137675912709 15.6688455836898  Z M 6.34571714218228 2.80746499682301  C 5.84847869688277 2.28530983995111  5.16285589821709 1.99879037155138  4.45242818218228 2.01626588938086  C 3.71832070878265 2.00006071531239  3.01129545209976 2.30145289320105  2.50357993324775 2.84702492177611  C 2.17601709518568 3.19195226400146  2.00395716561298 3.66225647196108  2.02918923173299 4.14371232420263  L 2.9138637720154 15.5062102149844  C 2.97369684785623 16.2314760533333  3.01643471691912 16.7193821594497  4.45242818218228 16.7193820986116  C 5.88842164744544 16.7193820377736  5.93115951650834 16.2358715397123  5.99099259234916 15.5018146677674  L 6.87139334572529 4.15250341863665  C 6.88081313332262 3.64938205024859  6.69107982761705 3.16391479045695  6.34571714218228 2.80746499682301  Z " fill-rule="nonzero" fill="#2a5082" stroke="none" transform="matrix(1 0 0 1 294 45 )" />
  </g>
</svg>