<?xml version="1.0" encoding="utf-8"?>
<svg version="1.1" xmlns:xlink="http://www.w3.org/1999/xlink" width="9px" height="9px" xmlns="http://www.w3.org/2000/svg">
  <g transform="matrix(1 0 0 1 -288 -65 )">
    <path d="M 4.41397254618883 8.72131374131189  C 4.41112051771047 8.72131374131189  4.4082684899359 8.72131091471146  4.40541646706033 8.72130526151475  C 2.02884114773208 8.71423791523072  0.105985862366185 6.78565603248742  0.105985862366185 4.40907020491383  C 0.105985862366185 2.02747801508607  2.03664779608143 0.0968160813708233  4.41823998590918 0.0968160813708233  C 6.79983217573694 0.0968160813708233  8.73049410945219 2.02747801508607  8.73049410945219 4.40907020491383  C 8.73049410945219 4.41048844516118  8.73049340979303 4.411906685321  8.73049201047497 4.41332492487805  C 8.7257825945839 6.79393876077335  6.7945910402475 8.72131374131189  4.41397254618883 8.72131374131189  Z M 6.7987389091656 4.41332492487805  C 6.7963865991676 3.0925050244076  5.72623636753078 2.02235479277078  4.40541646706033 2.02000248277279  C 3.0836209808578 2.02000248277279  2.01209402495507 3.09152943867552  2.01209402495507 4.41332492487805  C 2.01209402495507 5.73512041108058  3.0836209808578 6.80664736698332  4.40541646706033 6.80664736698332  C 5.72721195326286 6.80664736698332  6.79873890916559 5.73512041108058  6.79873890916559 4.41332492487805  Z " fill-rule="nonzero" fill="#2a5082" stroke="none" transform="matrix(1 0 0 1 288 65 )" />
  </g>
</svg>