<?xml version="1.0" encoding="utf-8"?>
<svg version="1.1" xmlns:xlink="http://www.w3.org/1999/xlink" width="40px" height="14px" xmlns="http://www.w3.org/2000/svg">
  <g transform="matrix(1 0 0 1 -83 -17 )">
    <path d="M 84 24  A 6 6 0 0 1 90 18 L 116 18  A 6 6 0 0 1 122 24 A 6 6 0 0 1 116 30 L 90 30  A 6 6 0 0 1 84 24 Z " fill-rule="nonzero" fill="#ffff80" stroke="none" fill-opacity="0.96078431372549" />
    <path d="M 83.5 24  A 6.5 6.5 0 0 1 90 17.5 L 116 17.5  A 6.5 6.5 0 0 1 122.5 24 A 6.5 6.5 0 0 1 116 30.5 L 90 30.5  A 6.5 6.5 0 0 1 83.5 24 Z " stroke-width="1" stroke="#ffff80" fill="none" stroke-opacity="0.96078431372549" />
  </g>
</svg>