<?xml version="1.0" encoding="utf-8"?>
<svg version="1.1" xmlns:xlink="http://www.w3.org/1999/xlink" width="20px" height="20px" xmlns="http://www.w3.org/2000/svg">
  <g transform="matrix(1 0 0 1 -71 -48 )">
    <path d="M 81 48  C 86.6 48  91 52.4  91 58  C 91 63.6  86.6 68  81 68  C 75.4 68  71 63.6  71 58  C 71 52.4  75.4 48  81 48  Z " fill-rule="nonzero" fill="#ffffff" stroke="none" />
    <path d="M 81 48.5  C 86.32 48.5  90.5 52.68  90.5 58  C 90.5 63.32  86.32 67.5  81 67.5  C 75.68 67.5  71.5 63.32  71.5 58  C 71.5 52.68  75.68 48.5  81 48.5  Z " stroke-width="1" stroke="#ff4633" fill="none" />
  </g>
</svg>