<?xml version="1.0" encoding="utf-8"?>
<svg version="1.1" xmlns:xlink="http://www.w3.org/1999/xlink" width="38px" height="38px" xmlns="http://www.w3.org/2000/svg">
  <g transform="matrix(1 0 0 1 -85 -73 )">
    <path d="M 104 74  C 114.08 74  122 81.92  122 92  C 122 102.08  114.08 110  104 110  C 93.92 110  86 102.08  86 92  C 86 81.92  93.92 74  104 74  Z " fill-rule="nonzero" fill="#ffffff" stroke="none" fill-opacity="0" />
    <path d="M 104 74  C 114.08 74  122 81.92  122 92  C 122 102.08  114.08 110  104 110  C 93.92 110  86 102.08  86 92  C 86 81.92  93.92 74  104 74  Z " stroke-width="2" stroke="#ff4633" fill="none" />
  </g>
</svg>