<?xml version="1.0" encoding="utf-8"?>
<svg version="1.1" xmlns:xlink="http://www.w3.org/1999/xlink" width="43px" height="18px" xmlns="http://www.w3.org/2000/svg">
  <g transform="matrix(1 0 0 1 -16 -232 )">
    <path d="M 21.8167410714286 15.5345744680851  C 17.4255580357143 17.1574468085106  13.840625 17.7510638297872  10.9371651785714 17.7510638297872  C 3.1578125 17.7510638297872  0.331138392857142 13.4904255319149  0.172767857142856 13.2414893617021  C 0.0815848214285695 13.0978723404255  0.0335937499999981 12.9351063829787  0 12.7627659574468  L 0 1.31648936170213  C 0.0335937499999981 0.986170212765959  0.215959821428569 0.684574468085107  0.508705357142855 0.526595744680851  C 0.801450892857141 0.373404255319149  1.15658482142857 0.392553191489361  1.43013392857143 0.574468085106383  C 1.52131696428571 0.636702127659575  10.5244419642857 6.55851063829787  21.2072544642857 2.70478723404255  C 32.4515625 -1.35  40.3604910714286 -0.526595744680851  42.9088169642857 4.95957446808511  C 42.9616071428571 5.07446808510638  42.9904017857143 5.20372340425532  42.9904017857143 5.33297872340426  L 42.9904017857143 15.213829787234  C 42.9904017857143 15.5968085106383  42.7456473214286 15.9367021276596  42.3857142857143 16.0563829787234  C 42.02578125 16.1808510638298  41.62265625 16.061170212766  41.3875 15.7595744680851  C 41.3491071428572 15.7117021276596  36.58359375 10.1202127659574  21.8167410714286 15.5345744680851  Z M 1.82366071428571 2.87234042553191  L 1.82366071428571 12.4803191489362  C 2.69709821428571 13.5957446808511  7.68337053571429 18.8329787234043  21.2024553571429 13.8734042553192  C 32.6483258928571 9.675  38.6232142857143 11.7047872340426  41.2003348214286 13.3324468085106  L 41.2003348214286 5.5436170212766  C 38.9927455357143 1.16329787234043  31.94765625 0.73723404255319  21.8167410714286 4.38989361702128  C 12.6984375 7.67872340425532  4.9046875 4.49521276595745  1.82366071428571 2.87234042553191  Z " fill-rule="nonzero" fill="#231815" stroke="none" transform="matrix(1 0 0 1 16 232 )" />
  </g>
</svg>