<?xml version="1.0" encoding="utf-8"?>
<svg version="1.1" xmlns:xlink="http://www.w3.org/1999/xlink" width="43px" height="10px" xmlns="http://www.w3.org/2000/svg">
  <g transform="matrix(1 0 0 1 -16 -222 )">
    <path d="M 42.9904017857143 1.28  C 42.9904017857143 1.795  42.5920758928571 2.215  42.0977678571429 2.215  L 0.931026785714286 2.215  C 0.43671875 2.215  0.0383928571428577 1.8  0.0383928571428577 1.285  C 0.0383928571428577 0.770000000000002  0.43671875 0.35  0.931026785714286 0.35  L 42.0977678571429 0.35  C 42.5920758928571 0.35  42.9904017857143 0.765  42.9904017857143 1.28  Z M 42.9904017857143 8.74  C 42.9904017857143 9.255  42.5920758928571 9.67  42.0977678571429 9.67  L 0.931026785714286 9.67  C 0.43671875 9.67  0.0383928571428577 9.255  0.0383928571428577 8.74  C 0.0383928571428577 8.225  0.43671875 7.81  0.931026785714286 7.81  L 42.0977678571429 7.81  C 42.5920758928571 7.81  42.9904017857143 8.225  42.9904017857143 8.74  Z " fill-rule="nonzero" fill="#231815" stroke="none" transform="matrix(1 0 0 1 16 222 )" />
  </g>
</svg>