<?xml version="1.0" encoding="utf-8"?>
<svg version="1.1" xmlns:xlink="http://www.w3.org/1999/xlink" width="29px" height="40px" xmlns="http://www.w3.org/2000/svg">
  <g transform="matrix(1 0 0 1 -22 -222 )">
    <path d="M 10.9513157894737 8.40384615384615  C 10.9560855263158 8.89903846153846  10.5554276315789 9.29807692307692  10.0641447368421 9.29807692307692  C 9.57286184210526 9.29807692307692  9.17697368421053 8.89903846153846  9.17697368421053 8.40384615384615  L 9.17697368421053 1.23076923076923  C 9.17697368421053 0.735576923076923  9.57286184210526 0.336538461538462  10.0641447368421 0.336538461538462  C 10.5554276315789 0.336538461538462  10.9513157894737 0.735576923076923  10.9513157894737 1.23076923076923  L 10.9513157894737 8.40384615384615  Z M 19.846875 8.40384615384615  C 19.8516447368421 8.89903846153846  19.4509868421053 9.29807692307692  18.9597039473684 9.29807692307692  C 18.4684210526316 9.29807692307692  18.0725328947368 8.89903846153846  18.0725328947368 8.40384615384615  L 18.0725328947368 1.23076923076923  C 18.0725328947368 0.735576923076923  18.4684210526316 0.336538461538462  18.9597039473684 0.336538461538462  C 19.4509868421053 0.336538461538462  19.846875 0.735576923076923  19.846875 1.23076923076923  L 19.846875 8.40384615384615  Z M 2.06052631578947 8.40384615384615  C 2.06052631578947 8.89903846153846  1.66463815789474 9.29807692307692  1.17335526315789 9.29807692307692  C 0.682072368421052 9.29807692307692  0.286184210526316 8.89903846153846  0.286184210526316 8.40384615384615  L 0.286184210526316 1.23076923076923  C 0.286184210526316 0.735576923076923  0.682072368421053 0.336538461538462  1.17335526315789 0.336538461538462  C 1.66463815789474 0.336538461538462  2.06052631578947 0.735576923076923  2.06052631578947 1.23076923076923  L 2.06052631578947 8.40384615384615  Z M 28.7424342105263 8.40384615384615  C 28.7472039473684 8.89903846153846  28.3465460526316 9.29807692307692  27.8552631578947 9.29807692307692  C 27.3639802631579 9.29807692307692  26.9680921052632 8.89903846153846  26.9680921052632 8.40384615384615  L 26.9680921052632 1.23076923076923  C 26.9680921052632 0.735576923076923  27.3639802631579 0.336538461538462  27.8552631578947 0.336538461538462  C 28.3465460526316 0.336538461538462  28.7424342105263 0.735576923076923  28.7424342105263 1.23076923076923  L 28.7424342105263 8.40384615384615  Z M 10.9513157894737 38.8894230769231  C 10.9560855263158 39.3798076923077  10.5554276315789 39.7836538461539  10.0641447368421 39.7836538461538  C 9.57286184210526 39.7836538461538  9.17697368421053 39.3846153846154  9.17697368421053 38.8894230769231  L 9.17697368421053 31.7163461538462  C 9.17697368421053 31.2211538461538  9.57286184210526 30.8221153846154  10.0641447368421 30.8221153846154  C 10.5554276315789 30.8221153846154  10.9513157894737 31.2211538461538  10.9513157894737 31.7163461538462  L 10.9513157894737 38.8894230769231  Z M 19.846875 38.8894230769231  C 19.8516447368421 39.3798076923077  19.4509868421053 39.7836538461539  18.9597039473684 39.7836538461538  C 18.4684210526316 39.7836538461538  18.0725328947368 39.3846153846154  18.0725328947368 38.8894230769231  L 18.0725328947368 31.7163461538462  C 18.0725328947368 31.2211538461538  18.4684210526316 30.8221153846154  18.9597039473684 30.8221153846154  C 19.4509868421053 30.8221153846154  19.846875 31.2211538461538  19.846875 31.7163461538462  L 19.846875 38.8894230769231  Z M 2.06052631578947 38.8894230769231  C 2.06052631578947 39.3798076923077  1.66463815789474 39.7836538461539  1.17335526315789 39.7836538461538  C 0.682072368421052 39.7836538461538  0.286184210526316 39.3846153846154  0.286184210526316 38.8894230769231  L 0.286184210526316 31.7163461538462  C 0.286184210526316 31.2211538461538  0.682072368421053 30.8221153846154  1.17335526315789 30.8221153846154  C 1.66463815789474 30.8221153846154  2.06052631578947 31.2211538461538  2.06052631578947 31.7163461538462  L 2.06052631578947 38.8894230769231  Z M 28.7424342105263 38.8894230769231  C 28.7472039473684 39.3798076923077  28.3465460526316 39.7836538461539  27.8552631578947 39.7836538461538  C 27.3639802631579 39.7836538461538  26.9680921052632 39.3846153846154  26.9680921052632 38.8894230769231  L 26.9680921052632 31.7163461538462  C 26.9680921052632 31.2211538461538  27.3639802631579 30.8221153846154  27.8552631578947 30.8221153846154  C 28.3465460526316 30.8221153846154  28.7424342105263 31.2211538461538  28.7424342105263 31.7163461538462  L 28.7424342105263 38.8894230769231  Z " fill-rule="nonzero" fill="#231815" stroke="none" transform="matrix(1 0 0 1 22 222 )" />
  </g>
</svg>