<?xml version="1.0" encoding="utf-8"?>
<svg version="1.1" xmlns:xlink="http://www.w3.org/1999/xlink" width="43px" height="10px" xmlns="http://www.w3.org/2000/svg">
  <g transform="matrix(1 0 0 1 -16 -222 )">
    <path d="M 1.82366071428571 8.74  C 1.82366071428571 9.255  1.42533482142857 9.67  0.931026785714286 9.67  C 0.43671875 9.67  0.0383928571428577 9.255  0.0383928571428577 8.74  L 0.0383928571428577 1.28  C 0.0383928571428577 0.765  0.43671875 0.35  0.931026785714286 0.35  C 1.42533482142857 0.35  1.82366071428571 0.765  1.82366071428571 1.28  L 1.82366071428571 8.74  Z M 42.9904017857143 8.74  C 42.9904017857143 9.255  42.5920758928572 9.67  42.0977678571429 9.67  C 41.6034598214286 9.67  41.2051339285714 9.255  41.2051339285714 8.74  L 41.2051339285714 1.28  C 41.2051339285714 0.765  41.6034598214286 0.35  42.0977678571429 0.35  C 42.5920758928572 0.35  42.9904017857143 0.765  42.9904017857143 1.28  L 42.9904017857143 8.74  Z " fill-rule="nonzero" fill="#231815" stroke="none" transform="matrix(1 0 0 1 16 222 )" />
  </g>
</svg>