<?xml version="1.0" encoding="utf-8"?>
<svg version="1.1" xmlns:xlink="http://www.w3.org/1999/xlink" width="11px" height="11px" xmlns="http://www.w3.org/2000/svg">
  <g transform="matrix(1 0 0 1 -32 -237 )">
    <path d="M 1.29439655172414 10.5780172413793  C 1.17586206896552 10.6443965517241  1.03836206896552 10.6728448275862  0.900862068965517 10.6728448275862  C 0.739655172413794 10.6728448275862  0.578448275862068 10.6301724137931  0.436206896551724 10.5400862068966  C 0.175431034482758 10.3788793103448  0.0189655172413782 10.0943965517241  0.0189655172413782 9.78620689655173  L 0.0189655172413782 0.948275862068966  C 0.0189655172413782 0.640086206896552  0.180172413793101 0.355603448275862  0.436206896551724 0.194396551724139  C 0.696982758620689 0.0331896551724159  1.02413793103448 0.0189655172413809  1.29439655172414 0.15646551724138  L 10.1370689655172 4.57543103448276  C 10.435775862069 4.72715517241379  10.6254310344828 5.03060344827586  10.6254310344828 5.36724137931035  C 10.6254310344828 5.70387931034483  10.435775862069 6.0073275862069  10.1370689655172 6.15905172413794  L 1.29439655172414 10.5780172413793  Z M 7.76637931034483 5.36724137931035  L 1.7875 2.38017241379311  L 1.7875 8.35905172413793  L 7.76637931034483 5.36724137931035  Z " fill-rule="nonzero" fill="#231815" stroke="none" transform="matrix(1 0 0 1 32 237 )" />
  </g>
</svg>