<?xml version="1.0" encoding="utf-8"?>
<svg version="1.1" xmlns:xlink="http://www.w3.org/1999/xlink" width="33px" height="19px" xmlns="http://www.w3.org/2000/svg">
  <g transform="matrix(1 0 0 1 -20 -335 )">
    <path d="M 1.49532381843191 11.6800483748863  C 1.44990830866507 11.6847652788498  1.40425480779138 11.687018866444  1.35857817881706 11.6867985314154  C 0.753270429339462 11.6860071791398  0.245058934110926 11.2462797536383  0.177774804218249 10.6651143845383  C -0.0308915256363065 8.86270153364572  0.307037719094104 7.04054431428118  1.15046532049519 5.42024412225771  C 1.35278214492669 5.03287569519926  1.76362757788356 4.78856867000569  2.21273921320495 4.78856867000569  C 2.86987102190647 4.78856867000569  3.40258160683042 5.30322126900003  3.40258160683042 5.93807742316928  C 3.40258160683042 6.11795374118276  3.35888739230661 6.29531977727465  3.27501310591472 6.45591072408086  C 2.76111064382746 7.43649565368227  2.49482944366304 8.52069956265097  2.49795864649244 9.61980468980953  C 2.49793754408947 9.88351002721604  2.5130994626963 10.1470123634923  2.54337414397066 10.4090906633716  C 2.61698997152463 11.0395862164469  2.14788733821825 11.6084611976995  1.49532381843191 11.6800483748863  Z M 32.9513072682256 9.61932254792157  C 32.9513072682256 14.7672798810062  28.6163714112792 18.955268759751  23.2872849371848 19  L 9.78140948188904 19  C 7.06459501166797 18.9525293030648  4.47386559016411 17.8475899425044  2.64119217239798 15.9099846468188  C 2.44130096658231 15.6982370680644  2.33049200226701 15.4219886298524  2.33049200226701 15.1354043835591  C 2.33049200226701 14.5005629561856  2.86319022987204 13.985922295618  3.52030679504814 13.985922295618  C 3.85487070093605 13.985922295618  4.17397501795141 14.1220055635224  4.3994214176983 14.3608241202993  C 5.78109954813176 15.8208769840485  7.73372682252052 16.653539988382  9.78140948188904 16.6558767448302  L 23.2872849371848 16.6558767448302  C 27.3038131059147 16.6558767448302  30.5737301861531 13.4992150775185  30.5737301861531 9.616429611545  C 30.5737301861531 5.73364414557154  27.3018168106373 2.58325049290094  23.2872849371848 2.58325049290094  L 9.78140948188904 2.58325049290094  C 8.52773578990617 2.58219700347071  7.2950725550677 2.89428345033763  6.20306613113251 3.48921769500851  C 6.02428189213188 3.58698350261001  5.82234382035046 3.63836698363903  5.61690654928932 3.63836698363903  C 4.95971191444533 3.63836698363903  4.42695039886992 3.12366518045602  4.42695039886992 2.48874832984403  C 4.42695039886992 2.07452111369012  4.65761214683582 1.69232282942471  5.03074696744613 1.48827896467955  C 6.48024936361156 0.69751113383552  8.11677076078493 0.28227684541519  9.78140948188904 0.282894194204178  L 23.2872849371848 0.282894194204178  C 28.6163714112792 0.282894194204178  32.9513072682256 4.47136521483692  32.9513072682256 9.61932254792157  Z " fill-rule="nonzero" fill="#27233a" stroke="none" transform="matrix(1 0 0 1 20 335 )" />
  </g>
</svg>