<?xml version="1.0" encoding="utf-8"?>
<svg version="1.1" xmlns:xlink="http://www.w3.org/1999/xlink" width="19px" height="24px" xmlns="http://www.w3.org/2000/svg">
  <g transform="matrix(1 0 0 1 -28 -326 )">
    <path d="M 3.24168937401125 22.3854538973847  C 3.24233286855207 22.3854538973847  3.24297636294495 22.3854532472801  3.24361985629357 22.3854519470717  C 3.79776256824978 22.3854519470722  4.24698317209458 21.9139201642374  4.24698317209458 21.3322562324821  C 4.24698317209458 21.3317501342155  4.24698282455796 21.3312440360169  4.246982129485 21.3307379382762  L 4.246982129485 20.2780483118352  L 5.25227305527709 20.2780483118352  C 5.80614845770429 20.2780483118352  6.25515318658056 19.8067431257057  6.25515318658056 19.225358715152  L 6.25515318658056 19.2223221267412  C 6.25515318658056 18.6409376864299  5.8061484577043 18.1696325003003  5.25227305527709 18.1696325003003  L 4.246982129485 18.1696325003003  L 4.246982129485 17.1159306975609  C 4.24671592468307 16.5344644385893  3.79757329833041 16.063241050167  3.24361985629357 16.0632411008776  C 2.68974442551674 16.0632411008776  2.24073969664048 16.5345462870072  2.24073969664048 17.1159306975609  L 2.24073969664048 18.1716569124126  L 1.23544879919801 18.1716569124126  C 0.681573396770792 18.1716569124126  0.232568667894528 18.6429620985421  0.232568667894528 19.2243465090958  L 0.232568667894528 19.2273831272643  C 0.232568667894528 19.808767537818  0.681573396770792 20.2800727239475  1.23544879919801 20.2800727239475  L 2.23881110073905 20.2800727239475  L 2.23881110073905 21.3307379382762  C 2.23880986205182 21.3314133916356  2.23880924270778 21.3320888460906  2.23880924270778 21.3327643007015  C 2.23880924270778 21.9141487112552  2.68781397158404 22.3854538973847  3.24168937401125 22.3854538973847  Z M 18.9343545973469 19.2243465090958  C 18.9316974829899 21.6974282087764  17.0223925965791 23.7015614460749  14.6663281807288 23.7043505462154  C 12.3091622789556 23.7043505462154  10.3983017641107 21.6985844313003  10.3983017641107 19.2243465388535  C 10.3983017641107 16.7501086464067  12.3091622789556 14.7443425314916  14.6663281807288 14.7443425314916  C 17.0234940825019 14.7443425314916  18.9343545973469 16.7501086464067  18.9343545973469 19.2243465388535  Z M 16.6344804405381 19.2243465090958  C 16.6336826924956 18.0837266319393  15.7529780495736 17.1592805427046  14.6663281807288 17.1584431733731  C 13.5793477022911 17.1584431733731  12.6981759209195 18.0833796021516  12.6981759209195 19.2243465090958  C 12.6981759209195 20.3653134160401  13.5793477022911 21.2902498448186  14.6663281807288 21.2902498448186  C 15.7533086591665 21.2902498448186  16.6344804405381 20.3653134160401  16.6344804405381 19.2243465090958  Z M 7.42630503252279 11.8347691825561  L 7.41762625174271 11.8383118591162  C 6.78617371522362 11.8383307521504  6.27293901340356 11.3036730814438  6.26817132940107 10.6408774510723  C 6.26817132940107 10.4758886078618  6.28649317473714 6.59915670201678  10.391551579232 4.74075465555922  C 11.0945319719302 4.42241726438964  11.2160347611032 4.18758650088149  11.2169991015784 4.18404382432145  C 11.1205683142704 3.93656055950559  10.0463293975241 3.08681733971366  8.78694337481641 2.67080252536955  C 8.31756794415566 2.5061916139754  8.00107935875049 2.04493956551228  8.00107935875049 1.52548037493619  C 8.00107935875049 0.858565369200647  8.51613959410942 0.317923936088528  9.15149859321765 0.317923936088528  C 9.26199443306792 0.317923936088528  9.37191395614731 0.33463356127957  9.47786993681953 0.367537896119494  C 9.6364985869023 0.420678490884785  13.3804237021425 1.68339990685239  13.4999978670646 4.14153134850921  C 13.5400166360012 4.95129259275045  13.1909372057912 6.10014131840285  11.3023403419672 6.95494553871786  C 8.58154582761756 8.18628871573319  8.56756334432192 10.598871093167  8.56756334432192 10.6201273310731  C 8.57130598664274 11.2860658007776  8.06072471321098 11.8294777320484  7.42630503252279 11.8347691825561  Z " fill-rule="nonzero" fill="#27233a" stroke="none" transform="matrix(1 0 0 1 28 326 )" />
  </g>
</svg>