<?xml version="1.0" encoding="utf-8"?>
<svg version="1.1" xmlns:xlink="http://www.w3.org/1999/xlink" width="43px" height="23px" xmlns="http://www.w3.org/2000/svg">
  <g transform="matrix(1 0 0 1 -16 -129 )">
    <path d="M 15.4637159255952 22.7816612959559  C 15.3695408060059 22.830698663236  15.264963275158 22.8568723046028  15.1585884801587 22.8580285257353  C 15.0511696446261 22.8573575399164  14.945478861112 22.8311697963946  14.8503789414683 22.7816612959559  L 0.632672352182539 15.3923668216912  C 0.41325262847837 15.2767841770119  0.276110954021875 15.0506152315065  0.276110954021875 14.8043390340074  C 0.276110954021875 14.5580628365082  0.41325262847837 14.3318938910028  0.63267235218254 14.2163112463235  L 27.6410752876984 0.164738472426471  C 27.8343002842075 0.0652983175881688  28.064269411229 0.0652983175881688  28.2574944077381 0.164738472426472  L 42.4721189037698 7.55403294669117  C 42.6934017689338 7.66814933675437  42.8322198067404 7.89483263594657  42.8322198067404 8.14206071323529  C 42.8322198067404 8.38928879052401  42.6934017689338 8.61597208971622  42.4721189037698 8.73008847977941  L 15.4637159255952 22.7816612959559  Z M 27.9523669623016 1.51491131985294  L 2.38638469345238 14.8058663566176  L 15.1585884801587 21.44676184375  L 40.7245707490079 8.1527521194853  L 27.9523669623016 1.51491131985294  Z " fill-rule="nonzero" fill="#2a5082" stroke="none" transform="matrix(1 0 0 1 16 129 )" />
  </g>
</svg>