<?xml version="1.0" encoding="utf-8"?>
<svg version="1.1" xmlns:xlink="http://www.w3.org/1999/xlink" width="43px" height="17px" xmlns="http://www.w3.org/2000/svg">
  <g transform="matrix(1 0 0 1 -16 -140 )">
    <path d="M 15.4637159255952 16.6513133164894  C 15.3684921149572 16.6992313586871  15.2639666274042 16.7227309028336  15.1585884801587 16.7199124308511  C 15.0511696446261 16.7191948918995  14.945478861112 16.6911902374026  14.8503789414683 16.6382468271277  L 0.632672352182539 8.73628159840426  C 0.419818828890856 8.6114256379242  0.287719066303566 8.37391731377975  0.287719066303566 8.11607399747766  C 0.287719066303566 7.72458278545416  0.587157609429383 7.4072164522649  0.956533771660709 7.4072164522649  C 1.05789904345169 7.4072164522649  1.15793831467975 7.43163648855409  1.24909142956349 7.47863109308511  L 15.1585884801587 15.2107318244681  L 41.8556997837302 0.367189058510638  C 41.9548266056764 0.309043161211629  42.0662653212543 0.278539295862702  42.1795608935526 0.278539295862702  C 42.5489370557839 0.278539295862702  42.8483755989097 0.595905629051965  42.8483755989097 0.987396841075466  C 42.8483755989097 1.25868074660808  42.7022912142249 1.50617249659747  42.4721189037698 1.62483956382979  L 15.4637159255952 16.6513133164894  Z " fill-rule="nonzero" fill="#2a5082" stroke="none" transform="matrix(1 0 0 1 16 140 )" />
  </g>
</svg>