<?xml version="1.0" encoding="utf-8"?>
<svg version="1.1" xmlns:xlink="http://www.w3.org/1999/xlink" width="43px" height="15px" xmlns="http://www.w3.org/2000/svg">
  <g transform="matrix(1 0 0 1 -16 -143 )">
    <path d="M 15.4698801121032 14.8695928125  C 15.3752370683883 14.9229194008872  15.2683516213731 14.9532551049452  15.1585884801587 14.9579420788043  C 15.0511696446261 14.9572951926651  14.945478861112 14.9320480297235  14.8503789414683 14.8843177173913  L 0.632672352182539 7.76042323369565  C 0.40250019721371 7.65344071910315  0.256415941317965 7.43031844080577  0.256415941317965 7.1857467423699  C 0.256415941317965 6.8328038977707  0.555854484443782 6.54668719073946  0.925230646675108 6.54668719073946  C 1.03852609240808 6.54668719073946  1.14996468770357 6.57418741714208  1.24909142956349 6.62660783967391  L 15.1524242936508 13.5944186413043  L 41.8495355972222 0.212452336956523  C 41.9406888050876 0.170084972085233  42.0407282033659 0.148069408781105  42.1420936074394 0.148069408781105  C 42.5114697696707 0.148069408781105  42.8109083127965 0.434186115812348  42.8109083127965 0.787128960411541  C 42.8109083127965 1.01958373368955  42.6788084137919 1.23370577993888  42.4659547172619 1.34626769021739  L 15.4698801121032 14.8695928125  Z " fill-rule="nonzero" fill="#2a5082" stroke="none" transform="matrix(1 0 0 1 16 143 )" />
  </g>
</svg>