<?xml version="1.0" encoding="utf-8"?>
<svg version="1.1" xmlns:xlink="http://www.w3.org/1999/xlink" width="43px" height="15px" xmlns="http://www.w3.org/2000/svg">
  <g transform="matrix(1 0 0 1 -16 -147 )">
    <path d="M 15.4575517390873 14.7745713586956  C 15.3652291072979 14.820953443865  15.2628728247892 14.8461602874599  15.1585884801587 14.8481957608696  C 15.0511696411086 14.8475488621514  14.9454788573965 14.8223016851849  14.8503789414683 14.7745713586957  L 0.632672352182539 7.64184195652174  C 0.402499849026846 7.53485956796411  0.25641530472818 7.31173711179668  0.25641530472818 7.06716516931362  C 0.25641530472818 6.71422232471442  0.555853847853998 6.42810561768318  0.925230010085323 6.42810561768318  C 1.03852570226001 6.42810561768318  1.14996453176361 6.4556059636642  1.24909142956349 6.50802660326087  L 15.1524242936508 13.4758374048913  L 41.8495355972222 0.0938710597826024  C 41.9406889730975 0.0515035028161655  42.0407286009455 0.0294878357180789  42.1420942440427 0.0294878357180789  C 42.511470406274 0.0294878357180789  42.8109089493998 0.315604542749317  42.8109089493998 0.668547387348514  C 42.8109089493998 0.901002409615874  42.6788087699424 1.11512464421691  42.4659547172619 1.22768645380435  L 15.4575517390873 14.7745713586956  Z " fill-rule="nonzero" fill="#2a5082" stroke="none" transform="matrix(1 0 0 1 16 147 )" />
  </g>
</svg>