<?xml version="1.0" encoding="utf-8"?>
<svg version="1.1" xmlns:xlink="http://www.w3.org/1999/xlink" width="30px" height="15px" xmlns="http://www.w3.org/2000/svg">
  <g transform="matrix(1 0 0 1 -23 -132 )">
    <path d="M 29.8495911627907 5.21536663043478  L 10.446041380814 14.7394157201087  L 10.1309975145349 14.5833320380435  C 9.42005561246973 14.2464484124795  8.57992467822795 14.2464484124795  7.86898277616279 14.5833320380435  L 7.55393895348837 14.7394157201087  L 0.263824578488371 11.1612711277174  L 1.42003547965116 10.5928909646739  C 1.50380622694947 10.5535235617831  1.58298967137307 10.5061511994568  1.65631835755814 10.4515321467391  C 1.580860224293 10.3959195684364  1.49958658147327 10.3475730017968  1.41373460755814 10.3072283967391  L 0.257523706395348 9.73884819293479  L 19.6579230959302 0.22657899456522  L 19.9729669622093 0.382662676630437  C 20.6872036786273 0.719682971618588  21.5301962923029 0.719682971618591  22.2444330087209 0.382662676630437  L 22.5594768313953 0.22657899456522  L 29.8495911627907 3.79883368206522  L 28.6933803052326 4.3672138451087  C 28.6074419329393 4.40741601576671  28.5261532499528 4.45577152922344  28.4507965552326 4.5115175951087  C 28.525747108008 4.56862613965965  28.607080573063 4.61799569622555  28.6933803052326 4.65876635869565  L 29.8495911627907 5.21536663043478  Z M 7.55708938953488 13.2993229483696  C 8.01318441332993 13.1299919157811  8.49979311949156 13.0440158603544  8.9905388372093 13.0460551222826  C 9.48249800774081 13.0450855256036  9.97011876572141 13.1320510618159  10.4271387209302 13.3022679211957  L 27.1937716569767 5.07989779891304  C 27.0806687221772 4.9077550951658  27.0186836309476 4.71054698678977  27.0141966715116 4.50857262228261  C 27.0150817483897 4.30956882536475  27.0727195537378 4.11438519485558  27.1811699127907 3.94313743206522  L 22.5437246511628 1.66372679347826  C 21.6239778374032 2.00465395672765  20.5997230056201 2.00465395672765  19.6799761918605 1.66372679347826  L 2.91334325581395 9.88315198369565  C 3.01931763209473 10.0560207900098  3.07371721832894 10.2523086660982  3.07086518895349 10.4515321467391  C 3.07074016757885 10.6511702388106  3.0142279476386 10.8472383304172  2.90704238372093 11.0199123097826  L 7.55708938953488 13.2993229483696  Z " fill-rule="nonzero" fill="#2a5082" stroke="none" transform="matrix(1 0 0 1 23 132 )" />
  </g>
</svg>