<?xml version="1.0" encoding="utf-8"?>
<svg version="1.1" xmlns:xlink="http://www.w3.org/1999/xlink" width="24px" height="24px" xmlns="http://www.w3.org/2000/svg">
  <g transform="matrix(1 0 0 1 -25 -133 )">
    <path d="M 16.0848938142857 23.7776689014085  C 15.9868950215016 23.8297696257838  15.8773003971683 23.8570446412976  15.7659614571429 23.8570421830986  C 15.3948672233928 23.8570421830986  15.0940359428571 23.5604479628521  15.0940359428571 23.1945804507042  C 15.0940359428571 23.1945804507042  15.0940359428571 23.1945804507042  15 23.1945804507042  L 15 12.634879056338  L 0.618221785714286 4.57238370422535  C 0.405908436168839 4.45525881019289  0.274396626034768 4.23413209288049  0.274396626034768 3.99426886562768  C 0.274396626034768 3.74201472452041  0.419705007942897 3.51165192311791  0.649186071428571 3.40010116901408  L 7.38392314285714 0.0847395633802783  C 7.57817362011557 -0.0141264954270211  7.80895885131299 -0.0141264954270211  8.00320932857143 0.0847395633802807  L 23.4853635 8.02206933802816  C 23.7094582503457 8.14043223399861  23.8470955705047 8.37289008818741  23.8414530857143 8.62347469014084  L 23.8414530857143 19.2625494084507  C 23.8414560605583 19.5061106461258  23.705898298063 19.7300304703911  23.4884599285714 19.8456378591549  L 16.0848938142857 23.7776689014085  Z M 7.6811805 1.42187438028169  L 2.38628378571429 4.03203473239437  L 16.1003759571429 11.6793466478873  C 16.3110904265191 11.7970932493675  16.4412226052212 12.0175348223839  16.4409833571429 12.2563294647887  L 16.4409833571429 22.0803014788732  L 22.5006985285714 18.8626300985915  L 22.5006985285714 9.02644681690141  L 7.6811805 1.42187438028169  Z " fill-rule="nonzero" fill="#2a5082" stroke="none" transform="matrix(1 0 0 1 25 133 )" />
  </g>
</svg>