<?xml version="1.0" encoding="utf-8"?>
<svg version="1.1" xmlns:xlink="http://www.w3.org/1999/xlink" width="43px" height="43px" xmlns="http://www.w3.org/2000/svg">
  <g transform="matrix(1 0 0 1 -16 -426 )">
    <path d="M 36.5052970488281 36.6990099072266  C 32.525802357131 40.6755998811552  27.1257807574934 42.9025629566998  21.5 42.8871782041016  L 21.4340099072266 42.8871782041016  C 9.6899211182911 42.8695620718333  0.178787940668037 33.3441514951672  0.178787940668037 21.6000494941406  C 0.178787940668037 9.84347971382664  9.70937081831883 0.312896836175846  21.4659405986328 0.312896836175846  C 21.4765841669254 0.312896836175846  21.4872277337204 0.312904818846037  21.4978712900391 0.312920784179686  L 21.5638613828125 0.312920784179686  C 33.2954150558069 0.348141433573343  42.7870818382516 9.86834701832777  42.7870818382516 21.5999535611885  C 42.7870818382516 27.2686168895174  40.5261054991997 32.7031566397301  36.5052970488281 36.6990099072266  Z M 21.5638613828125 1.14950493261719  L 21.5 1.14950493261719  C 10.2048771055753 1.15032035702633  1.04880326038962 10.3070552269457  1.04880326038962 21.6021781508042  C 1.04880326038962 27.0037776336779  3.18561614483091 32.1860516952972  6.99282179589844 36.0178217958984  C 10.8080700927098 39.8776714021177  16.0089335611181 42.0507661543321  21.4361386171875 42.052722765625  L 21.5 42.052722765625  C 32.7699762614701 42.05160472638  41.9153552672902 32.9338322563454  41.9505445615234 21.6639108769531  C 41.9846924128386 10.3698475951532  32.8579176674196 1.18589351842748  21.5638613828125 1.14950493261719  Z " fill-rule="nonzero" fill="#5e482a" stroke="none" transform="matrix(1 0 0 1 16 426 )" />
  </g>
</svg>