<?xml version="1.0" encoding="utf-8"?>
<svg version="1.1" xmlns:xlink="http://www.w3.org/1999/xlink" width="28px" height="28px" xmlns="http://www.w3.org/2000/svg">
  <g transform="matrix(1 0 0 1 -23 -433 )">
    <path d="M 13.979934 1.03557707649126  C 13.9866226696261 1.03557707649126  13.9933113382703 1.03558215491724  14 1.03559231176471  L 14.040132 1.03559231176471  C 21.2444431907243 1.04653218177519  27.0788272916458 6.82114288880411  27.0788272916458 13.9407058823529  C 27.0788272916458 21.0680117164324  21.2322207130566 26.8458346882146  14.020066 26.8458346882146  C 14.0133773303739 26.8458346882146  14.0066886617297 26.8458296097886  14 26.8458194529412  L 13.959868 26.8458194529412  C 6.75555680927566 26.8348795829307  0.921172708354247 21.0602688759018  0.921172708354247 13.9407058823529  C 0.921172708354247 6.81340004827345  6.76777928694338 1.03557707649126  13.979934 1.03557707649126  Z M 14.0422442083333 0.0127850882352907  L 14 0.0127850882352942  C 6.27466456747088 0.0941012671770778  0.0553326534560613 6.3060773195805  0.0553326534560613 13.9409594987796  C 0.0553326534560613 21.5595779637052  6.24915749568107 27.7646495617869  13.9577557916667 27.8686266764706  L 14 27.8686266764706  C 21.7253354325292 27.7873104975289  27.9446673465441 21.5753344451254  27.9446673465441 13.9404522659263  C 27.9446673465441 6.3218338010006  21.750842504319 0.1167622029189  14.0422442083333 0.0127850882352907  Z " fill-rule="nonzero" fill="#5e482a" stroke="none" transform="matrix(1 0 0 1 23 433 )" />
  </g>
</svg>