<?xml version="1.0" encoding="utf-8"?>
<svg version="1.1" xmlns:xlink="http://www.w3.org/1999/xlink" width="19px" height="19px" xmlns="http://www.w3.org/2000/svg">
  <g transform="matrix(1 0 0 1 -28 -438 )">
    <path d="M 9.48710042075893 1.31520919783684  C 9.49140028245692 1.31520919783684  9.49570014350334 1.31521254186247  9.5 1.31521922991071  L 9.52579915848214 1.31521922991071  C 14.1010543188047 1.32233563653073  17.8062618099757 5.03331073378017  17.8062618099757 9.60857142857143  C 17.8062618099757 14.1888689134288  14.0931970640985 17.901933659306  9.51289957924107 17.901933659306  C 9.50859971754308 17.901933659306  9.50429985649666 17.9019303152804  9.5 17.9019236272321  L 9.47420084151786 17.9019236272321  C 4.89894568119526 17.8948072206121  1.19373819002433 14.1838321233627  1.19373819002433 9.60857142857143  C 1.19373819002433 5.02827394371403  4.90680293590152 1.31520919783684  9.48710042075893 1.31520919783684  Z M 9.52794908482143 0.261753881696425  L 9.5 0.261753881696428  C 9.49534182244594 0.261746921200187  9.49068364034372 0.261743440950613  9.48602545758928 0.261743440950613  C 4.32094647190855 0.261743440950613  0.133822654120251 4.44886725873891  0.133822654120251 9.61394624441965  C 0.133822654120251 14.7735686738577  4.31243424591358 18.9584288339505  9.47205091517857 18.9661386071429  L 9.5 18.9661386071429  C 9.50465817755407 18.9661455676391  9.50931635965628 18.9661490478887  9.51397454241071 18.9661490478887  C 14.6790535280915 18.9661490478887  18.8661773458797 14.7790252301004  18.8661773458797 9.61394624441964  C 18.8661773458797 4.45432381498162  14.6875657540864 0.269463654888758  9.52794908482143 0.261753881696425  Z " fill-rule="nonzero" fill="#5e482a" stroke="none" transform="matrix(1 0 0 1 28 438 )" />
  </g>
</svg>