<?xml version="1.0" encoding="utf-8"?>
<svg version="1.1" xmlns:xlink="http://www.w3.org/1999/xlink" width="8px" height="17px" xmlns="http://www.w3.org/2000/svg">
  <g transform="matrix(1 0 0 1 -33 -433 )">
    <path d="M 7.04792079166667 15.4933333333333  C 6.34696237620399 16.4387744050439  5.2403102162142 16.9971912346484  4.06336633333333 16.9993399166667  L 3.93029704166667 16.9993399166667  C 1.88783146570204 16.9941961894978  0.234808694090039 15.3370052180473  0.234808694090039 13.2945331651345  C 0.234808694090039 12.9685405608743  0.277834761272047 12.6439738097091  0.362772291666668 12.3292409166667  L 3.531089125 0.50085808333333  C 3.59225141681538 0.274848924104267  3.79754489237543 0.118063615294894  4.03168316666667 0.118547874999997  C 4.2662428959448 0.119530048114965  4.47080855045641 0.278155103767996  4.530165 0.505082499999998  L 7.649901 12.35247525  C 7.93533552328825 13.4365643069333  7.71395926835677 14.5916046058239  7.04792079166667 15.4933333333333  Z M 3.93240925 15.9622442083333  L 4.06336633333333 15.9643564166667  C 4.91135015251521 15.9623691717509  5.7085442167939 15.5598566612476  6.213597375 14.878679875  C 6.6940894134717 14.2295802032362  6.85412869009726 13.397531324123  6.648712875 12.6165016666667  L 4.033795375 2.65742575  L 1.36184816666667 12.59749175  C 1.30076359239631 12.8240828138132  1.2698213408651 13.0577387608326  1.2698213408651 13.2924190442263  C 1.2698213408651 14.76409882566  2.46073489035642 15.9582494307158  3.93240925 15.9622442083333  Z " fill-rule="nonzero" fill="#5e482a" stroke="none" transform="matrix(1 0 0 1 33 433 )" />
  </g>
</svg>