<?xml version="1.0" encoding="utf-8"?>
<svg version="1.1" xmlns:xlink="http://www.w3.org/1999/xlink" width="11px" height="11px" xmlns="http://www.w3.org/2000/svg">
  <g transform="matrix(1 0 0 1 -16 -18 )">
    <path d="M 3.09375 9.36816964285714  C 3.09375 10.181875  2.43424107142857 10.8413839285714  1.62053571428571 10.8413839285714  C 0.806830357142858 10.8413839285714  0.147321428571429 10.181875  0.147321428571429 9.36816964285714  L 0.147321428571429 3.58678571428571  C 0.147321428571429 1.69125  1.68928571428571 0.149285714285714  3.58482142857143 0.149285714285714  L 9.38191964285714 0.149285714285714  C 10.195625 0.149285714285714  10.8551339285714 0.808794642857143  10.8551339285714 1.6225  C 10.8551339285714 2.43620535714286  10.195625 3.09571428571429  9.38191964285714 3.09571428571429  L 3.58482142857143 3.09571428571429  C 3.31424107142857 3.09571428571429  3.09375 3.31620535714286  3.09375 3.58678571428571  L 3.09375 9.36816964285714  Z " fill-rule="nonzero" fill="#ff9668" stroke="none" transform="matrix(1 0 0 1 16 18 )" />
  </g>
</svg>