<?xml version="1.0" encoding="utf-8"?>
<svg version="1.1" xmlns:xlink="http://www.w3.org/1999/xlink" width="11px" height="11px" xmlns="http://www.w3.org/2000/svg">
  <g transform="matrix(1 0 0 1 -48 -18 )">
    <path d="M 10.8526785714286 9.36816964285714  C 10.8526785714286 10.181875  10.1926785714286 10.8413839285714  9.37946428571428 10.8413839285714  C 8.56575892857143 10.8413839285714  7.90625 10.181875  7.90625 9.36816964285714  L 7.90625 3.58334821428571  C 7.90625 3.31276785714286  7.68575892857143 3.09227678571428  7.41517857142857 3.09227678571428  L 1.5296875 3.09227678571428  C 0.715982142857139 3.09227678571428  0.0564732142857132 2.43276785714286  0.0564732142857132 1.6190625  C 0.0564732142857132 0.805357142857142  0.715982142857139 0.145848214285713  1.5296875 0.145848214285713  L 7.41517857142857 0.145848214285713  C 9.31071428571429 0.145848214285713  10.8526785714286 1.6878125  10.8526785714286 3.58334821428571  L 10.8526785714286 9.36816964285714  Z " fill-rule="nonzero" fill="#ff4e83" stroke="none" transform="matrix(1 0 0 1 48 18 )" />
  </g>
</svg>