<?xml version="1.0" encoding="utf-8"?>
<svg version="1.1" xmlns:xlink="http://www.w3.org/1999/xlink" width="11px" height="11px" xmlns="http://www.w3.org/2000/svg">
  <g transform="matrix(1 0 0 1 -48 -50 )">
    <path d="M 10.8526785714286 7.41321428571428  C 10.8526785714286 9.30875  9.31022321428572 10.8507142857143  7.41517857142857 10.8507142857143  L 1.5296875 10.8507142857143  C 0.715982142857139 10.8507142857143  0.0564732142857132 10.1912053571429  0.0564732142857132 9.3775  C 0.0564732142857132 8.56379464285714  0.715982142857139 7.90428571428572  1.5296875 7.90428571428572  L 7.41517857142857 7.90428571428572  C 7.68575892857143 7.90428571428572  7.90625 7.68379464285714  7.90625 7.41321428571429  L 7.90625 1.49973214285714  C 7.90625 0.686026785714281  8.56575892857143 0.0265178571428554  9.37946428571428 0.0265178571428554  C 10.1931696428571 0.0265178571428554  10.8526785714286 0.686026785714281  10.8526785714286 1.49973214285714  L 10.8526785714286 7.41321428571428  Z " fill-rule="nonzero" fill="#ff9668" stroke="none" transform="matrix(1 0 0 1 48 50 )" />
  </g>
</svg>