<?xml version="1.0" encoding="utf-8"?>
<svg version="1.1" xmlns:xlink="http://www.w3.org/1999/xlink" width="11px" height="11px" xmlns="http://www.w3.org/2000/svg">
  <g transform="matrix(1 0 0 1 -16 -50 )">
    <path d="M 10.8551339285714 9.38142857142857  C 10.8551339285714 10.1951339285714  10.195625 10.8541517857143  9.38191964285714 10.8541517857143  L 3.58482142857143 10.8541517857143  C 1.68928571428571 10.8541517857143  0.147321428571429 9.3121875  0.147321428571429 7.41665178571428  L 0.147321428571429 1.50366071428571  C 0.147321428571429 0.689955357142855  0.806830357142858 0.0304464285714288  1.62053571428571 0.0304464285714288  C 2.43424107142857 0.0304464285714288  3.09375 0.689955357142855  3.09375 1.50366071428571  L 3.09375 7.41714285714286  C 3.09375 7.68772321428571  3.31424107142857 7.90821428571428  3.58482142857143 7.90821428571428  L 9.38191964285714 7.90821428571428  C 10.195625 7.90821428571428  10.8551339285714 8.56772321428571  10.8551339285714 9.38142857142857  Z " fill-rule="nonzero" fill="#ff4e83" stroke="none" transform="matrix(1 0 0 1 16 50 )" />
  </g>
</svg>