<?xml version="1.0" encoding="utf-8"?>
<svg version="1.1" xmlns:xlink="http://www.w3.org/1999/xlink" width="33px" height="42px" xmlns="http://www.w3.org/2000/svg">
  <g transform="matrix(1 0 0 1 -21 -18 )">
    <path d="M 21.37734375 41.68125  C 21.15890625 41.803125  20.92265625 41.86125  20.6896875 41.86125  C 20.1975 41.86125  19.71984375 41.6025  19.46203125 41.14265625  C 19.081875 40.4653125  19.3228125 39.60796875  20.00015625 39.22828125  C 23.73890625 37.130625  30.01125 31.96359375  30.01125 20.92546875  L 30.01125 16.52671875  C 30.01125 9.04125  23.92125 2.95171875  16.43625 2.95171875  C 8.95125 2.95171875  2.86125 9.04171874999999  2.86125 16.52671875  C 2.86125 17.3034375  2.23171875 17.93296875  1.455 17.93296875  C 0.678281249999999 17.93296875  0.0487499999999983 17.3034375  0.0487499999999983 16.52671875  C 0.0487499999999983 14.31515625  0.482343749999998 12.16875  1.33734375 10.1475  C 2.1628125 8.19609375  3.3440625 6.4434375  4.84875 4.93875  C 6.3534375 3.43406249999999  8.105625 2.2528125  10.0575 1.42734375  C 12.07875 0.572343749999996  14.22515625 0.138749999999996  16.43671875 0.138749999999996  C 18.64828125 0.138749999999996  20.7946875 0.572343749999996  22.8159375 1.42734375  C 24.76734375 2.2528125  26.52 3.4340625  28.0246875 4.93875  C 29.529375 6.44343749999999  30.710625 8.195625  31.53609375 10.1475  C 32.39109375 12.16875  32.8246875 14.31515625  32.8246875 16.52671875  L 32.8246875 20.92546875  C 32.8246875 26.11640625  31.54453125 30.70171875  29.01890625 34.55390625  C 26.58515625 38.26640625  23.52 40.47890625  21.37734375 41.68125  Z " fill-rule="nonzero" fill="#352e70" stroke="none" transform="matrix(1 0 0 1 21 18 )" />
  </g>
</svg>