<?xml version="1.0" encoding="utf-8"?>
<svg version="1.1" xmlns:xlink="http://www.w3.org/1999/xlink" width="26px" height="32px" xmlns="http://www.w3.org/2000/svg">
  <g transform="matrix(1 0 0 1 -21 -26 )">
    <path d="M 7.70966911764706 31.8047058823529  C 7.67286764705882 31.8070588235294  7.63654411764706 31.8084705882353  7.60069852941176 31.8084705882353  C 6.8575 31.8084705882353  6.22852941176471 31.2437647058824  6.17261029411765 30.5021176470588  C 6.11334558823529 29.7247058823529  6.70599264705882 29.0470588235294  7.49555147058823 28.9891764705882  C 10.6910661764706 28.7538823529412  14.6240441176471 27.0545882352941  17.5155882352941 24.6602352941176  C 20.0515441176471 22.56  23.0745220588235 18.9214117647059  23.0745220588235 13.5124705882353  L 23.0745220588235 9.06164705882353  C 23.0745220588235 5.64188235294118  20.2489338235294 2.85976470588235  16.7757352941176 2.85976470588235  L 16.7441911764706 2.85976470588235  C 13.2886764705882 2.85976470588235  10.4774264705882 5.62776470588235  10.4774264705882 9.03011764705882  C 10.4774264705882 11.3971764705882  9.5435294117647 13.6244705882353  7.84827205882353 15.3025882352941  C 6.15301470588235 16.9807058823529  3.89522058823529 17.9110588235294  1.49117647058823 17.9228235294118  L 1.48400735294118 17.9228235294118  C 0.695404411764705 17.9228235294118  0.0544852941176464 17.2955294117647  0.0501838235294109 16.5181176470588  C 0.0463602941176456 15.7383529411765  0.684889705882352 15.1030588235294  1.47683823529412 15.0992941176471  C 4.85875 15.0828235294118  7.6097794117647 12.36  7.6097794117647 9.03011764705882  C 7.6097794117647 4.07058823529411  11.7076470588235 0.0362352941176409  16.7441911764706 0.0362352941176409  L 16.7757352941176 0.0362352941176409  C 21.8299632352941 0.0362352941176409  25.9421691176471 4.08517647058823  25.9421691176471 9.06164705882352  L 25.9421691176471 13.5124705882353  C 25.9421691176471 16.232  25.2988602941176 18.8178823529412  24.0299264705882 21.1976470588235  C 22.9168014705882 23.2856470588235  21.3458088235294 25.1774117647059  19.3613970588235 26.8211764705882  C 15.9880882352941 29.6145882352941  11.5236397058823 31.5242352941176  7.70966911764706 31.8047058823529  Z " fill-rule="nonzero" fill="#352e70" stroke="none" transform="matrix(1 0 0 1 21 26 )" />
  </g>
</svg>