<?xml version="1.0" encoding="utf-8"?>
<svg version="1.1" xmlns:xlink="http://www.w3.org/1999/xlink" width="91px" height="27px" xmlns="http://www.w3.org/2000/svg">
  <defs>
    <mask fill="white" id="clip193">
      <path d="M 0 26.7752808988764  L 0 10.5  C 0 4.62  4.62 0  10.5 0  L 80.5 0  C 86.38 0  91 4.62  91 10.5  C 91 16.38  86.38 21  80.5 21  L 7.40449438202248 21  L 0 26.7752808988764  Z " fill-rule="evenodd" />
    </mask>
  </defs>
  <g transform="matrix(1 0 0 1 -219 -303 )">
    <path d="M 0 26.7752808988764  L 0 10.5  C 0 4.62  4.62 0  10.5 0  L 80.5 0  C 86.38 0  91 4.62  91 10.5  C 91 16.38  86.38 21  80.5 21  L 7.40449438202248 21  L 0 26.7752808988764  Z " fill-rule="nonzero" fill="#ffffff" stroke="none" transform="matrix(1 0 0 1 219 303 )" />
    <path d="M 0 26.7752808988764  L 0 10.5  C 0 4.62  4.62 0  10.5 0  L 80.5 0  C 86.38 0  91 4.62  91 10.5  C 91 16.38  86.38 21  80.5 21  L 7.40449438202248 21  L 0 26.7752808988764  Z " stroke-width="2" stroke="#ff4633" fill="none" transform="matrix(1 0 0 1 219 303 )" mask="url(#clip193)" />
  </g>
</svg>