<?xml version="1.0" encoding="utf-8"?>
<svg version="1.1" xmlns:xlink="http://www.w3.org/1999/xlink" width="7px" height="7px" xmlns="http://www.w3.org/2000/svg">
  <g transform="matrix(1 0 0 1 -17 -339 )">
    <path d="M 6.06627368421053 5.66104  C 7.35587447548227 4.3600037843492  7.29758672013823 2.3138580272947  5.93580349342105 1.08098668125  C 4.56629169995014 -0.144134082096632  2.41245406134373 -0.0887607340754087  1.1146947368421 1.20493331875001  C -0.174906085134614 2.50596953997042  -0.116618329392252 4.55211533055311  1.24516492763158 5.78498668125  C 2.61467673357979 7.01010743295815  4.76851437258452 6.95473406538131  6.06627368421053 5.66104  Z M 5.473656125 5.11746668125001  L 5.46422454605263 5.12792000000001  C 4.98518581445771 4.696583749021  4.3502877720257 4.45616233375267  3.69026598743952 4.45616233375267  C 2.98172215009045 4.45616233375267  2.30439287580504 4.73312272350606  1.81734736842105 5.222  L 1.806343875 5.21229331875001  C 2.26014031509145 4.75724710975083  2.51306459776775 4.1542595782293  2.51306459776775 3.52742629219318  C 2.51306459776775 2.85448811228644  2.22168142477737 2.21117969153717  1.70731229605263 1.74850668125  L 1.71752980921053 1.73805331875001  C 2.19652582118866 2.16915995028911  2.83124954879319 2.40943802722849  3.49107407196762 2.40943802722849  C 4.19943006182254 2.40943802722849  4.87659683002738 2.13262400431333  5.36362105263158 1.64397331875  L 5.37462454605263 1.65368000000001  C 4.92082809180094 2.10872621137923  4.6679038002858 2.71171375260354  4.6679038002858 3.33854704961924  C 4.6679038002858 4.01148523998142  4.95928698230176 4.65479366977602  5.473656125 5.11746668125001  Z " fill-rule="nonzero" fill="#d5382e" stroke="none" transform="matrix(1 0 0 1 17 339 )" />
  </g>
</svg>