<?xml version="1.0" encoding="utf-8"?>
<svg version="1.1" xmlns:xlink="http://www.w3.org/1999/xlink" width="9px" height="9px" xmlns="http://www.w3.org/2000/svg">
  <g transform="matrix(1 0 0 1 -16 -339 )">
    <path d="M 1.6752 1.81422220833334  C 2.25830749746552 1.19927925255367  3.06917652574749 0.851984457197148  3.91662220833333 0.854222208333335  C 4.70530007741709 0.852468151466515  5.46448436637299 1.15390149411556  6.03715554166667 1.69617779166667  C 7.26924512774411 2.87034097837591  7.32198166829349 4.81905122318972  6.1552 6.05813333333334  C 4.98103681329076 7.29022291941078  3.03232656847695 7.34295945996016  1.79324445833333 6.17617779166667  C 0.561154844835585 5.00201460052677  0.508418303925823 3.05330432378136  1.6752 1.81422220833334  Z M 3.8256 2.96124445833334  C 3.22850893749755 2.96179234881092  2.65408733697127 2.73263479540948  2.22133333333334 2.32124445833334  L 2.212088875 2.33120000000001  C 2.6774704802984 2.77184096330857  2.94110288307476 3.38451565835104  2.94110288307476 4.02540917298169  C 2.94110288307476 4.6223932653776  2.71226661932296 5.19666711416266  2.301688875 5.63004445833334  L 2.31164445833333 5.63928887500001  C 2.7522854205116 5.17390728234429  3.36496010693946 4.91027488773395  4.00585361161255 4.91027488773395  C 4.60283769355171 4.91027488773395  5.17711153309602 5.13911114348869  5.610488875 5.54968887500001  L 5.61973333333334 5.53973333333334  C 5.15435172803493 5.09909237002478  4.89071932525858 4.48641767498231  4.89071932525858 3.84552416035166  C 4.89071932525858 3.24854006795575  5.11955558901038 2.67426621917069  5.53013333333334 2.24088887500001  L 5.52017779166667 2.23164445833334  C 5.07987110255381 2.69770839230203  4.46675892998167 2.96142637793395  3.8256 2.96053333333334  Z M 3.92069483678443 0.164442260397526  C 3.91933729366939 0.164442260397526  3.91797975065758 0.164442993042902  3.91662220833333 0.164444458333335  C 1.8343574398305 0.166691992415939  0.147539295117757 1.8553318206013  0.147539295117757 3.93759780206419  C 0.147539295117757 6.02145406646624  1.83683857238238 7.71075334373086  3.92069483678442 7.71075334373086  C 4.95547056880584 7.71075334373086  5.94483606385318 7.28577877836624  6.65724445833333 6.53528887500001  C 7.32279772105067 5.83415872592829  7.69385037845109 4.9043162882074  7.69385037845109 3.93759780206419  C 7.69385037845109 1.85374153766215  6.00455110118647 0.164442260397526  3.92069483678443 0.164442260397526  Z M 3.607288875 3.64675554166667  C 3.67982220833334 3.65197034722223  3.75259258333334 3.6545777638889  3.8256 3.65457779166667  C 3.95352652072338 3.65445810562661  4.08131403741879 3.646144782367  4.20817779166667 3.629688875  C 4.19397536168862 3.82932736584076  4.19945360792237 4.02987899452917  4.22453333333333 4.22844445833334  C 4.152 4.22322965277778  4.079229625 4.22062223611112  4.00622220833333 4.22062220833334  C 3.87829576567422 4.22074384242805  3.75050838733919 4.22905715759191  3.62364445833334 4.24551112500001  C 3.63784687449366 4.04587263279328  3.63236861430367 3.84532100410118  3.607288875 3.64675554166667  Z " fill-rule="nonzero" fill="#e8d4ab" stroke="none" transform="matrix(1 0 0 1 16 339 )" />
  </g>
</svg>