<?xml version="1.0" encoding="utf-8"?>
<svg version="1.1" xmlns:xlink="http://www.w3.org/1999/xlink" width="24px" height="29px" xmlns="http://www.w3.org/2000/svg">
  <g transform="matrix(1 0 0 1 -22 -320 )">
    <path d="M 24 26.3487255813954  C 23.9722451880492 27.654165804725  22.8809642138911 28.7121373116846  21.534423173913 28.7133271177326  L 2.77444639130435 28.7133271177326  C 1.42807466865006 28.7117416154482  0.337032531603984 27.6540016555101  0.335397086956522 26.3487255813954  L 0.335397086956523 2.37683102180233  C 0.3370325076534 1.0715549312265  1.4280746516999 0.0138149456465373  2.77444639130435 0  L 21.534423173913 0  C 22.8809642308486 0.0134192493981059  23.9722452120152 1.07139078201166  24 2.37683102180233  L 24 26.3487255813954  Z M 21.534423173913 1  L 2.77444639130435 1  C 1.74673836450884 0.573096163242869  0.913922279326977 1.38049199001075  1 2.37683102180233  L 1 26.3487255813954  C 0.913922279326979 27.3450646131869  1.74673836450884 28.1524604399548  2.77444639130435 28  L 21.534423173913 28  C 22.5621312007086 28.1524604399548  23.3949472858904 27.3450646131869  23 26.3487255813953  L 23 2.37683102180233  C 23.3949472858904 1.38049199001075  22.5621312007086 0.573096163242868  21.534423173913 1  Z " fill-rule="nonzero" fill="#e8d4ab" stroke="none" transform="matrix(1 0 0 1 22 320 )" />
  </g>
</svg>