<?xml version="1.0" encoding="utf-8"?>
<svg version="1.1" xmlns:xlink="http://www.w3.org/1999/xlink" width="8px" height="8px" xmlns="http://www.w3.org/2000/svg">
  <g transform="matrix(1 0 0 1 -29 -325 )">
    <path d="M 7.73386666666667 4.03057779166667  C 7.73151536306974 6.10403367353376  6.05123367353376 7.78431536306974  3.97777779166666 7.78666666666667  C 6.48183704166667 7.78666666666667  1.47371854166667 7.78666666666666  3.97777779166667 7.78666666666666  C 1.90334718699507 7.78666666666666  0.221688916666665 6.10500839633826  0.221688916666665 4.03057779166666  C 0.221688916666665 1.95614718699506  1.90334718699507 0.274488916666662  3.97777779166667 0.274488916666662  C 6.05220839633827 0.274488916666662  7.73386666666667 1.95614718699506  7.73386666666667 4.03057779166666  Z M 7.04266666666667 4.024888875  C 7.04109850100197 2.3328474705767  5.66981919608996 0.961568165664692  3.97777779166666 0.959999999999999  C 2.28508640607811 0.959999999999996  0.912888916666664 2.33219748941144  0.912888916666664 4.02488887499999  C 0.912888916666664 5.71758026058855  2.28508640607811 7.08977775  3.97777779166666 7.08977775  C 5.67046917725522 7.08977775  7.04266666666666 5.71758026058855  7.04266666666666 4.02488887499999  Z " fill-rule="nonzero" fill="#e8d4ab" stroke="none" transform="matrix(1 0 0 1 29 325 )" />
  </g>
</svg>