<?xml version="1.0" encoding="utf-8"?>
<svg version="1.1" xmlns:xlink="http://www.w3.org/1999/xlink" width="10px" height="10px" xmlns="http://www.w3.org/2000/svg">
  <g transform="matrix(1 0 0 1 -42 -318 )">
    <path d="M 9.83687357758621 5.09039081896552  C 9.82839064815908 2.38252940244864  7.63512701072419 0.189594399485099  4.92726435344828 0.18151724137931  C 2.21911567881475 0.189596513478172  0.0257344445126629 2.38297774778027  0.017655172413801 5.09112642241379  C 0.0261381017177073 7.7989878221692  2.21940171300477 9.99192281824149  4.92726435344828 10  C 7.63541304491471 9.99192075155635  9.82879430536663 7.79853951036102  9.83687357758621 5.09039081896552  Z M 8.65103448275862 5.0808275862069  L 8.65103448275863 5.10216090517242  C 6.60014094244853 5.10216090517242  4.93756323275862 6.76473861486232  4.93756323275862 8.81563215517242  L 4.91622987068966 8.81563219827586  C 4.91622987068966 6.76473861486232  3.25365216099975 5.10216090517242  1.20275862068966 5.10216090517242  L 1.20275862068966 5.0808275862069  C 3.25365216099976 5.0808275862069  4.91622987068965 3.41824987651699  4.91622987068965 1.3673563362069  L 4.93756323275862 1.3673563362069  C 4.93756323275862 3.41824987651699  6.60014094244853 5.0808275862069  8.65103448275862 5.0808275862069  Z " fill-rule="nonzero" fill="#d5382e" stroke="none" transform="matrix(1 0 0 1 42 318 )" />
  </g>
</svg>