<?xml version="1.0" encoding="utf-8"?>
<svg version="1.1" xmlns:xlink="http://www.w3.org/1999/xlink" width="12px" height="12px" xmlns="http://www.w3.org/2000/svg">
  <g transform="matrix(1 0 0 1 -42 -317 )">
    <path d="M 5.429688875 0.842133333333333  C 8.04756594341756 0.849943273495531  10.1678344951877 2.97021180665101  10.1756444583333 5.588088875  C 10.1674442932204 8.20568824429964  8.04728944370005 10.3255254138311  5.429688875 10.3333333333333  C 2.81181182285426 10.3255233703044  0.691543296362236 8.2052548438124  0.683733333333341 5.58737779166667  C 0.691543273495536 2.96950072324911  2.81181180665101 0.849232171478932  5.429688875 0.841422208333332  Z M 1.83004445833333 5.59733333333333  C 3.81257488063309 5.59733333333333  5.41973333333333 7.20449178603358  5.41973333333334 9.18702220833333  L 5.44035554166667 9.18702220833333  C 5.44035554166667 7.20449178603358  7.04751399436691 5.59733333333333  9.03004441666667 5.59733333333333  L 9.03004445833334 5.576711125  C 7.0475139943669 5.576711125  5.44035554166666 3.96955267229976  5.44035554166666 1.98702225  L 5.41973333333333 1.98702220833333  C 5.41973333333333 3.96955267229976  3.81257488063309 5.576711125  1.83004445833333 5.576711125  L 1.83004445833333 5.59733333333333  Z M 5.429688875 0.289599999999999  L 5.429688875 0.288177791666664  C 2.50302171954402 0.288177791666661  0.130489065847357 2.66071044536332  0.130489065847357 5.58737779166666  C 0.130489065847357 8.51404513797  2.50302171954402 10.8865777916667  5.42968906584736 10.8865777916667  C 8.35580102067645 10.8865777916667  10.7281035600833 8.51491184944701  10.728888875 5.5888  C 10.7253624029376 2.66359461143669  8.3548942635633 0.29312647206242  5.429688875 0.289599999999999  Z M 5.429688875 7.138311125  C 5.06020571959432 6.49232456164393  4.52474210502274 5.95686094707235  3.87875554166667 5.58737779166666  C 4.52474210502274 5.21789463626098  5.06020571959432 4.6824310216894  5.429688875 4.03644445833333  C 5.79917203040568 4.6824310216894  6.33463564497726 5.21789463626098  6.98062220833333 5.58737779166666  C 6.33463564497726 5.95686094707235  5.79917203040568 6.49232456164393  5.429688875 7.138311125  Z " fill-rule="nonzero" fill="#e8d4ab" stroke="none" transform="matrix(1 0 0 1 42 317 )" />
  </g>
</svg>