<?xml version="1.0" encoding="utf-8"?>
<svg version="1.1" xmlns:xlink="http://www.w3.org/1999/xlink" width="40px" height="14px" xmlns="http://www.w3.org/2000/svg">
  <g transform="matrix(1 0 0 1 -239 -17 )">
    <path d="M 240 24  A 6 6 0 0 1 246 18 L 272 18  A 6 6 0 0 1 278 24 A 6 6 0 0 1 272 30 L 246 30  A 6 6 0 0 1 240 24 Z " fill-rule="nonzero" fill="#9f7146" stroke="none" fill-opacity="0.96078431372549" />
    <path d="M 239.5 24  A 6.5 6.5 0 0 1 246 17.5 L 272 17.5  A 6.5 6.5 0 0 1 278.5 24 A 6.5 6.5 0 0 1 272 30.5 L 246 30.5  A 6.5 6.5 0 0 1 239.5 24 Z " stroke-width="1" stroke="#9f7146" fill="none" stroke-opacity="0.96078431372549" />
  </g>
</svg>