<?xml version="1.0" encoding="utf-8"?>
<svg version="1.1" xmlns:xlink="http://www.w3.org/1999/xlink" width="47px" height="42px" xmlns="http://www.w3.org/2000/svg">
  <g transform="matrix(1 0 0 1 -137 -33 )">
    <path d="M 46.3474230769231 16.0748771186441  C 44.3774903846154 7.03437711864405  34.5713019230769 0.321673728813545  23.3776192307692 0.32167372881356  C 10.8635980769231 0.32167372881356  0.61271730769231 8.72514406779661  0.61271730769231 19.3983050847458  C 0.61271730769231 25.4067076271186  3.68398653846154 30.3672457627119  9.12369423076923 34.2504661016949  L 8.44825 36.1530127118644  L 7.79630576923077 37.9897118644068  C 7.03020576923077 39.082156779661  7.36589423076923 40.5429025423729  8.5464076923077 41.252186440678  C 9.72692115384616 41.961470338983  11.3049461538462 41.6503855932203  12.0710461538462 40.5578516949152  L 15.9397788461538 37.4636440677966  C 18.5439403846154 37.982593220339  20.7166057692308 38.4824110169491  23.3776192307692 38.4824110169491  C 24.0917480769231 38.4824110169491  24.8002730769231 38.4471737288135  25.5031942307692 38.39325  C 25.0585019230769 36.8942415254237  24.8003634615385 35.3235127118644  24.8003634615385 33.6926313559322  C 24.8003634615385 23.8928389830508  33.3415288461538 15.9405127118644  44.1552346153846 15.9405127118644  C 44.8933153846154 15.9405127118644  45.6231711538462 15.9931906779661  46.3474230769231 16.0748771186441  Z " fill-rule="nonzero" fill="#d1d9e0" stroke="none" transform="matrix(1 0 0 1 137 33 )" />
  </g>
</svg>