<?xml version="1.0" encoding="utf-8"?>
<svg version="1.1" xmlns:xlink="http://www.w3.org/1999/xlink" width="48px" height="45px" xmlns="http://www.w3.org/2000/svg">
  <g transform="matrix(1 0 0 1 -137 -32 )">
    <path d="M 13.4622985074627 43.5597278225806  C 12.7851940298507 44.4574596774194  11.7113731343284 44.9882963709677  10.5561492537313 44.9882963709677  C 9.8714328358209 44.9882963709677  9.20346268656717 44.7990423387097  8.62432835820896 44.4410383064516  C 7.79382089552239 43.9275302419355  7.22820895522388 43.128689516129  7.03173134328358 42.1915826612903  C 6.85074626865672 41.3287802419355  7.0064776119403 40.4504637096774  7.46991044776119 39.7004334677419  L 8.48149253731343 36.7678125  C 5.93874626865672 34.7908971774194  3.95802985074627 32.5698387096774  2.58734328358209 30.1569858870968  C 1.03567164179104 27.4255947580645  0.248955223880597 24.4220262096774  0.248955223880597 21.2299294354839  C 0.248955223880597 15.6621774193548  2.73814925373134 10.4638608870968  7.25794029850746 6.59259072580645  C 11.7010746268657 2.78691532258065  17.6039104477612 0.690967741935485  23.8789253731343 0.690967741935485  C 29.4624179104478 0.690967741935485  34.9388059701493 2.3848185483871  39.2991044776119 5.46042338709677  C 43.7077611940299 8.57005040322581  46.6868955223881 12.8859677419355  47.6878208955224 17.6129637096774  C 47.760410439297 17.9558068939604  47.6655379782791 18.3130832509634  47.4329552238806 18.572752016129  C 47.2005036755282 18.832647645048  46.8585951294032 18.9630080831553  46.5146865671642 18.9228629032258  C 45.7616417910448 18.8354939516129  45.0911641791045 18.7929435483871  44.4650149253731 18.7929435483871  C 39.5711641791045 18.7929435483871  34.9998805970149 20.5718951612903  31.5933134328358 23.8020967741935  C 28.2205074626866 27.0001814516129  26.3631044776119 31.2625705645161  26.3631044776119 35.8040322580645  C 26.3631044776119 37.2779637096774  26.5828656716418 38.7878225806452  27.0163880597015 40.2915120967742  C 27.0449898627187 40.3906937177806  27.0595092502461 40.4934953864481  27.0595092502461 40.5968232081794  C 27.0595092502461 41.1653244071218  26.6277528412929 41.6381190239613  26.0682985074627 41.682247983871  C 25.2648358208955 41.7455745967742  24.5486865671642 41.7764213709677  23.8789253731343 41.7764213709677  C 21.4025373134328 41.7764213709677  19.3954925373134 41.3592641129032  17.0714328358209 40.8764213709677  L 16.7928358208955 40.8184475806452  L 13.4622985074627 43.5597278225806  Z M 38.0710746268657 7.24744959677418  C 34.0674626865672 4.42351814516127  29.0272835820896 2.86829637096772  23.8787462686567 2.86829637096774  C 18.1111343283582 2.86829637096774  12.7011940298508 4.7814314516129  8.64537313432836 8.25532258064516  C 4.61686567164179 11.7058971774194  2.39811940298508 16.3136794354839  2.39811940298508 21.2298387096774  C 2.39811940298508 26.7989516129032  5.08594029850747 31.5972580645161  10.3868955223881 35.4914818548387  C 10.7712452797331 35.7737438557636  10.9272087606886 36.2780838657074  10.7705373134328 36.7320665322581  L 9.45537313432836 40.5444556451613  C 9.42367347768769 40.6364074921342  9.3799078518268 40.7236210779744  9.32525373134329 40.80375  C 9.13423880597015 41.0840927419355  9.06626865671642 41.4162399193548  9.13397014925374 41.7390423387097  C 9.20650746268657 42.0845262096774  9.42304477611941 42.3839213709677  9.7439104477612 42.5823387096774  C 9.98570149253732 42.7317641129032  10.2666268656716 42.810877016129  10.5561492537313 42.810877016129  C 11.0629253731343 42.810877016129  11.5249253731343 42.5769858870968  11.7919701492537 42.1852318548387  C 11.8499415359905 42.1002179799579  11.9195656068093 42.0239994761996  11.9987462686567 41.9588709677419  L 15.8318507462687 38.8040625  C 16.0811201706694 38.5989383799992  16.407861648962 38.517472087018  16.7226268656717 38.5819657258064  C 16.9868955223881 38.6362197580645  17.2468656716418 38.6902016129032  17.5032537313433 38.7434576612903  C 19.7125074626866 39.2026209677419  21.6205074626866 39.5990927419355  23.8787462686567 39.5990927419355  C 24.1185671641791 39.5990927419355  24.3657313432836 39.5947379032258  24.6224776119403 39.5858467741935  C 24.3509552238806 38.3192237903226  24.2137611940299 37.0520564516129  24.2137611940299 35.804122983871  C 24.2137611940299 30.6536189516129  26.3128656716418 25.8267338709677  30.1245671641791 22.2123991935484  C 33.9308955223881 18.6032358870968  39.0237313432836 16.6156149193548  44.4650149253731 16.6156149193548  C 44.7072537313433 16.6156149193548  44.954328358209 16.6211491935484  45.2080298507463 16.6323084677419  C 44.0654328358209 13.0091733870968  41.5731044776119 9.71755040322579  38.0710746268657 7.24744959677418  Z " fill-rule="nonzero" fill="#020202" stroke="none" transform="matrix(1 0 0 1 137 32 )" />
  </g>
</svg>