<?xml version="1.0" encoding="utf-8"?>
<svg version="1.1" xmlns:xlink="http://www.w3.org/1999/xlink" width="9px" height="9px" xmlns="http://www.w3.org/2000/svg">
  <g transform="matrix(1 0 0 1 -147 -41 )">
    <path d="M 8.60071875 4.47213461538461  C 8.60071875 6.61941346153846  6.6950625 8.36636538461538  4.35271875 8.36636538461538  C 2.01028125 8.36636538461538  0.104624999999999 6.61941346153846  0.104624999999999 4.47213461538461  C 0.104624999999999 2.32485576923077  2.01028125 0.577903846153846  4.35271875 0.577903846153846  C 6.6950625 0.577903846153846  8.60071875 2.32485576923077  8.60071875 4.47213461538461  Z M 6.35071875 4.47213461538461  C 6.35071875 3.47010576923077  5.45446875 2.65482692307692  4.35271875 2.65482692307692  C 3.25096875 2.65482692307692  2.354625 3.47010576923077  2.354625 4.47213461538461  C 2.354625 5.47416346153846  3.2510625 6.28944230769231  4.35271875 6.28944230769231  C 5.454375 6.28944230769231  6.35071875 5.47416346153846  6.35071875 4.47213461538461  Z " fill-rule="nonzero" fill="#020202" stroke="none" transform="matrix(1 0 0 1 147 41 )" />
  </g>
</svg>