<?xml version="1.0" encoding="utf-8"?>
<svg version="1.1" xmlns:xlink="http://www.w3.org/1999/xlink" width="9px" height="9px" xmlns="http://www.w3.org/2000/svg">
  <g transform="matrix(1 0 0 1 -165 -41 )">
    <path d="M 8.35225961538461 4.47213461538461  C 8.35225961538461 6.61941346153846  6.59319230769231 8.36636538461538  4.43094230769231 8.36636538461538  C 2.26877884615385 8.36636538461538  0.509711538461537 6.61941346153846  0.509711538461537 4.47213461538461  C 0.509711538461537 2.32485576923077  2.26877884615385 0.577903846153846  4.43094230769231 0.577903846153846  C 6.59319230769231 0.577903846153846  8.35225961538461 2.32485576923077  8.35225961538461 4.47213461538461  Z M 6.27533653846154 4.47213461538461  C 6.27533653846154 3.47010576923077  5.4479423076923 2.65482692307692  4.43094230769231 2.65482692307692  C 3.41394230769231 2.65482692307692  2.58663461538461 3.47010576923077  2.58663461538461 4.47213461538461  C 2.58663461538461 5.47416346153846  3.41402884615384 6.28944230769231  4.43094230769231 6.28944230769231  C 5.44785576923077 6.28944230769231  6.27533653846154 5.47416346153846  6.27533653846154 4.47213461538461  Z " fill-rule="nonzero" fill="#020202" stroke="none" transform="matrix(1 0 0 1 165 41 )" />
  </g>
</svg>