<?xml version="1.0" encoding="utf-8"?>
<svg version="1.1" xmlns:xlink="http://www.w3.org/1999/xlink" width="40px" height="39px" xmlns="http://www.w3.org/2000/svg">
  <g transform="matrix(1 0 0 1 -162 -50 )">
    <path d="M 32.6335159090909 33.7139764150944  L 32.0033113636364 29.1254764150943  C 35.9945181818182 25.7767264150943  38.8515340909091 21.5157971698113  38.8515340909091 16.7557594339623  C 38.8515340909091 7.54461320754718  29.757 0.0385377358490623  19.5416590909091 0.0385377358490623  C 8.72536363636364 0.0385377358490623  0.206079545454549 7.54461320754718  0.206079545454549 16.7557594339623  C 0.206079545454549 25.9782877358491  8.72527500000001 33.4691273584906  19.5416590909091 33.4691273584906  C 21.1144227272727 33.4691273584906  22.6969363636364 33.1899528301887  24.2789181818182 32.8261745283019  C 24.307777707004 32.9225576103757  24.3511896417004 33.0138543518426  24.4076181818182 33.0968349056604  L 28.3647 36.3512122641509  C 29.1298090909091 37.473108490566  30.7055863636364 37.7923443396227  31.8845386363636 37.0641603773585  C 33.0633136363636 36.3357971698113  33.3985363636364 34.8360518867925  32.6335159090909 33.7139764150944  Z " fill-rule="nonzero" fill="#ffffff" stroke="none" transform="matrix(1 0 0 1 162 50 )" />
  </g>
</svg>