<?xml version="1.0" encoding="utf-8"?>
<svg version="1.1" xmlns:xlink="http://www.w3.org/1999/xlink" width="42px" height="41px" xmlns="http://www.w3.org/2000/svg">
  <g transform="matrix(1 0 0 1 -160 -48 )">
    <path d="M 33.9897457627119 40.2491875  C 33.3922245762712 40.6247767857143  32.7201355932203 40.8040602678571  32.0542754237288 40.8040602678571  C 30.92775 40.8041517857143  29.8189322033898 40.2909196428571  29.1181016949153 39.3462723214286  L 25.3651525423729 36.2066607142857  C 24.109779661017 36.4792924107143  22.5883474576271 36.7392946428571  21.0417330508475 36.7392946428571  C 15.5512118644068 36.7392946428571  10.4110169491525 34.8687611607143  6.56819491525424 31.4721674107143  C 2.69556355932204 28.0493080357143  0.562817796610174 23.46865625  0.562817796610174 18.5741897321429  C 0.562817796610174 13.6839330357143  2.69547457627119 9.10437946428572  6.5679279661017 5.67895758928572  C 10.412529661017 2.27815401785716  15.552813559322 0.405241071428582  21.0417330508475 0.405241071428582  C 26.2244618644068 0.405241071428582  31.4099491525424 2.32501116071429  35.2686101694915 5.67209375000001  C 39.2837923728814 9.15508035714287  41.4950211864407 13.7370133928572  41.4950211864407 18.5741897321429  C 41.4950211864407 23.3365959821429  38.984186440678 27.9966852678571  34.234093220339 32.0505602678572  C 33.7801906779661 32.4381383928572  33.1070338983051 32.3735267857143  32.7305466101695 31.9067857142857  C 32.353970338983 31.439953125  32.4166144067797 30.7476205357143  32.8703389830508 30.3604084821429  C 38.2336144067797 25.7831428571429  39.3594279661017 21.4246049107143  39.3594279661017 18.57428125  C 39.3594279661017 14.3953928571429  37.4176398305085 10.4096071428571  33.8918644067797 7.35117187500001  C 30.4122711864407 4.33282142857144  25.7286483050847 2.60176116071429  21.0418220338983 2.60176116071429  C 16.0636652542373 2.60176116071429  11.4179491525424 4.2859642857143  7.9605127118644 7.3443080357143  C 4.56723305084745 10.3459107142857  2.69841101694914 14.3340758928572  2.69841101694914 18.57428125  C 2.69841101694914 22.818421875  4.56705508474575 26.8073191964286  7.96015677966101 29.806359375  C 11.4159025423729 32.8607678571429  16.0617076271186 34.5428660714286  21.0418220338983 34.5428660714286  C 22.6626483050847 34.5428660714286  24.3083008474576 34.2066294642857  25.5608262711864 33.9136808035714  C 26.0672210492362 33.7952001298934  26.5830657193423 34.0686194057475  26.7830974576271 34.5615357142857  L 30.5731525423729 37.732171875  C 30.651813559322 37.7979732142857  30.7208644067796 37.8749397321429  30.778436440678 37.9606919642857  C 31.2213940677966 38.6214508928571  32.1821440677966 38.8111674107143  32.8763008474576 38.3749933035714  C 33.2055381355932 38.1679799107143  33.4279957627119 37.855171875  33.502563559322 37.4942254464286  C 33.5724152542373 37.1560669642857  33.502563559322 36.8081160714286  33.3057330508475 36.5144352678571  C 32.9709788135593 36.0151138392857  33.0932415254237 35.3312008928571  33.5788220338983 34.9870022321428  C 34.064313559322 34.6427120535714  34.7293728813559 34.7684575892857  35.0639491525424 35.2678705357143  C 35.5971355932203 36.06334375  35.7845338983051 37.0162276785714  35.5915296610169 37.9507165178571  C 35.393720338983 38.9079933035714  34.8249406779661 39.7243325892857  33.9897457627119 40.2491875  Z " fill-rule="nonzero" fill="#000000" stroke="none" transform="matrix(1 0 0 1 160 48 )" />
  </g>
</svg>