<?xml version="1.0" encoding="utf-8"?>
<svg version="1.1" xmlns:xlink="http://www.w3.org/1999/xlink" width="9px" height="7px" xmlns="http://www.w3.org/2000/svg">
  <g transform="matrix(1 0 0 1 -169 -58 )">
    <path d="M 8.4740625 3.39484090909091  C 8.4740625 5.23703409090909  6.69984375 6.73575  4.5189375 6.73575  C 2.33812500000001 6.73575  0.563906249999999 5.23703409090909  0.563906249999999 3.39484090909091  C 0.563906249999999 1.55264772727273  2.33812499999999 0.053931818181818  4.5189375 0.053931818181818  C 6.69984375 0.053931818181818  8.4740625 1.55264772727273  8.4740625 3.39484090909091  Z M 6.5990625 3.39484090909091  C 6.5990625 2.429875  5.66596875 1.64484090909091  4.5189375 1.64484090909091  C 3.37209375 1.64484090909091  2.43890625 2.429875  2.43890625 3.39484090909091  C 2.43890625 4.35980681818182  3.372 5.14484090909091  4.5189375 5.14484090909091  C 5.665875 5.14484090909091  6.5990625 4.35980681818182  6.5990625 3.39484090909091  Z " fill-rule="nonzero" fill="#000000" stroke="none" transform="matrix(1 0 0 1 169 58 )" />
  </g>
</svg>