<?xml version="1.0" encoding="utf-8"?>
<svg version="1.1" xmlns:xlink="http://www.w3.org/1999/xlink" width="7px" height="7px" xmlns="http://www.w3.org/2000/svg">
  <g transform="matrix(1 0 0 1 -185 -58 )">
    <path d="M 6.96945454545454 3.39484090909091  C 6.96945454545454 5.23703409090909  5.46397727272727 6.73575  3.61367045454545 6.73575  C 1.76320454545454 6.73575  0.257806818181817 5.23703409090909  0.257806818181817 3.39484090909091  C 0.257806818181817 1.55264772727273  1.76320454545454 0.053931818181818  3.61367045454545 0.053931818181818  C 5.46405681818182 0.053931818181818  6.96945454545454 1.55264772727273  6.96945454545454 3.39484090909091  Z M 5.37854545454545 3.39484090909091  C 5.37854545454545 2.429875  4.58675 1.64484090909091  3.61367045454545 1.64484090909091  C 2.64051136363636 1.64484090909091  1.84871590909091 2.429875  1.84871590909091 3.39484090909091  C 1.84871590909091 4.35980681818182  2.64043181818182 5.14484090909091  3.61367045454545 5.14484090909091  C 4.58674999999999 5.14484090909091  5.37854545454545 4.35980681818182  5.37854545454545 3.39484090909091  Z " fill-rule="nonzero" fill="#000000" stroke="none" transform="matrix(1 0 0 1 185 58 )" />
  </g>
</svg>