<?xml version="1.0" encoding="utf-8"?>
<svg version="1.1" xmlns:xlink="http://www.w3.org/1999/xlink" width="13px" height="12px" xmlns="http://www.w3.org/2000/svg">
  <g transform="matrix(1 0 0 1 -158 -74 )">
    <path d="M 12.7021118421053 10.5297352941177  C 12.5939210526316 11.0209411764706  12.1707368421053 11.354205882353  11.7022236842105 11.3542058823529  C 11.626875 11.3542058823529  11.5505 11.3455588235294  11.4738684210526 11.3275588235294  C 8.17614473684211 10.5543529411765  5.27688815789474 8.72408823529412  3.08946710526316 6.03450000000001  C 1.43504605263158 4.00041176470589  0.762125000000005 2.18576470588236  0.734328947368427 2.10952941176472  C 0.534539473684215 1.56229411764707  0.802578947368427 0.951529411764715  1.33301315789474 0.745500000000016  C 1.86259210526316 0.539558823529433  2.45375 0.815117647058839  2.65430921052632 1.36085294117649  C 2.66414473684211 1.38723529411767  3.26505263157896 2.9753823529412  4.71198684210527 4.73461764705884  C 6.62931578947369 7.06597058823532  9.05749342105264 8.58944117647061  11.9287828947369 9.26267647058825  C 12.4815394736842 9.39229411764708  12.82775 9.95955882352943  12.7021118421053 10.5297352941177  Z " fill-rule="nonzero" fill="#000000" stroke="none" transform="matrix(1 0 0 1 158 74 )" />
  </g>
</svg>