<?xml version="1.0" encoding="utf-8"?>
<svg version="1.1" xmlns:xlink="http://www.w3.org/1999/xlink" width="29px" height="29px" xmlns="http://www.w3.org/2000/svg">
  <g transform="matrix(1 0 0 1 -79 -55 )">
    <path d="M 93.5 55  C 101.62 55  108 61.38  108 69.5  C 108 77.62  101.62 84  93.5 84  C 85.38 84  79 77.62  79 69.5  C 79 61.38  85.38 55  93.5 55  Z " fill-rule="nonzero" fill="#ffffff" stroke="none" />
    <path d="M 93.5 55.5  C 101.34 55.5  107.5 61.66  107.5 69.5  C 107.5 77.34  101.34 83.5  93.5 83.5  C 85.66 83.5  79.5 77.34  79.5 69.5  C 79.5 61.66  85.66 55.5  93.5 55.5  Z " stroke-width="1" stroke="#ff4633" fill="none" />
  </g>
</svg>