<?xml version="1.0" encoding="utf-8"?>
<svg version="1.1" xmlns:xlink="http://www.w3.org/1999/xlink" width="38px" height="38px" xmlns="http://www.w3.org/2000/svg">
  <g transform="matrix(1 0 0 1 -160 -189 )">
    <path d="M 38 19  C 38 8.47692307692308  29.5230769230769 0  19 0  C 8.47692307692308 0  0 8.47692307692308  0 19  C 0 29.5230769230769  8.47692307692308 38  19 38  C 29.5230769230769 38  38 29.5230769230769  38 19  Z M 27.2576923076923 6.21153846153846  C 29.7423076923077 5.7  28.5730769230769 7.81923076923077  28.5730769230769 7.81923076923077  L 20.4615384615385 16.8076923076923  L 20.4615384615385 18.1230769230769  L 27.3307692307692 18.1230769230769  C 27.9884615384615 18.1230769230769  28.5 18.6346153846154  28.5 19.2923076923077  C 28.5 19.95  27.9153846153846 20.4615384615385  27.2576923076923 20.4615384615385  L 20.4615384615385 20.4615384615385  L 20.4615384615385 22.9461538461538  L 27.3307692307692 22.9461538461538  C 27.9884615384615 22.9461538461538  28.5 23.4576923076923  28.5 24.1153846153846  C 28.5 24.7730769230769  27.9884615384615 25.2846153846154  27.3307692307692 25.2846153846154  L 20.4615384615385 25.2846153846154  L 20.4615384615385 30.9846153846154  L 20.4615384615385 30.2538461538462  C 20.4615384615385 31.1307692307692  19.7307692307692 31.7884615384615  18.9269230769231 31.7884615384615  C 18.05 31.7884615384615  17.3923076923077 31.0576923076923  17.3923076923077 30.2538461538462  L 17.3923076923077 30.9846153846154  L 17.3923076923077 25.2846153846154  L 10.6692307692308 25.2846153846154  C 10.0115384615385 25.2846153846154  9.5 24.7730769230769  9.5 24.1153846153846  C 9.5 23.4576923076923  10.0115384615385 22.9461538461538  10.6692307692308 22.9461538461538  L 17.3923076923077 22.9461538461538  L 17.3923076923077 20.4615384615385  L 10.6692307692308 20.4615384615385  C 10.0115384615385 20.4615384615385  9.5 19.95  9.5 19.2923076923077  C 9.5 18.6346153846154  10.0115384615385 18.1230769230769  10.6692307692308 18.1230769230769  L 17.3923076923077 18.1230769230769  L 17.3923076923077 16.8076923076923  L 9.35384615384615 7.81923076923077  C 9.35384615384615 7.81923076923077  8.47692307692308 5.40769230769231  11.1807692307692 6.21153846153846  C 12.1307692307692 6.50384615384615  12.8615384615385 7.81923076923077  12.8615384615385 7.81923076923077  L 19.0730769230769 14.4692307692308  L 25.4307692307692 7.81923076923077  C 25.4307692307692 7.81923076923077  26.1615384615385 6.43076923076923  27.2576923076923 6.21153846153846  Z " fill-rule="nonzero" fill="#f9ac3e" stroke="none" transform="matrix(1 0 0 1 160 189 )" />
  </g>
</svg>