<?xml version="1.0" encoding="utf-8"?>
<svg version="1.1" xmlns:xlink="http://www.w3.org/1999/xlink" width="47px" height="47px" xmlns="http://www.w3.org/2000/svg">
  <g transform="matrix(1 0 0 1 -156 -185 )">
    <path d="M 47 23.5  C 47 10.5015625  36.4984375 0  23.5 0  C 10.5015625 0  0 10.5015625  0 23.5  C 0 36.4984375  10.5015625 47  23.5 47  C 36.4984375 47  47 36.4984375  47 23.5  Z M 44.796875 23.5  C 44.796875 35.25  35.25 44.796875  23.5 44.796875  C 11.75 44.796875  2.203125 35.25  2.203125 23.5  C 2.203125 11.75  11.75 2.203125  23.5 2.203125  C 35.25 2.203125  44.796875 11.75  44.796875 23.5  Z " fill-rule="nonzero" fill="#f9ac3e" stroke="none" transform="matrix(1 0 0 1 156 185 )" />
  </g>
</svg>