<?xml version="1.0" encoding="utf-8"?>
<svg version="1.1" xmlns:xlink="http://www.w3.org/1999/xlink" width="63px" height="55px" xmlns="http://www.w3.org/2000/svg">
  <g transform="matrix(1 0 0 1 -27 -509 )">
    <path d="M 45.0138671875 6.1775390625  C 44.998046875 5.7029296875  45.251171875 5.25205078125  45.70205078125 5.03056640625  L 51.09677734375 2.42021484375  L 45.67041015625 1  L 19.2109375 1  L 13.71337890625 2.13544921875  L 18.23798828125 4.66669921875  L 21.8212890625 5.5921875  C 22.36708984375 5.7345703125  22.723046875 6.21708984375  22.7388671875 6.75498046875  L 45.0138671875 6.1775390625  Z M 62.83544921875 11.6830078125  L 56.072265625 6.003515625  L 51.66630859375 17.41787109375  L 62.83544921875 11.6830078125  Z M 0.796093750000001 11.698828125  L 14.59140625 17.46533203125  L 8.20791015625 6.193359375  L 0.796093750000001 11.698828125  Z M 33.37802734375 54.89619140625  L 45.87607421875 23.469140625  L 19.88330078125 23.58779296875  L 33.37802734375 54.89619140625  Z M 42.87021484375 12.45029296875  L 22.73095703125 12.27626953125  L 20.86416015625 18.2484375  L 45.59921875 18.4224609375  L 42.87021484375 12.45029296875  Z " fill-rule="nonzero" fill="#ffd524" stroke="none" transform="matrix(1 0 0 1 27 509 )" />
  </g>
</svg>