<?xml version="1.0" encoding="utf-8"?>
<svg version="1.1" xmlns:xlink="http://www.w3.org/1999/xlink" width="71px" height="46px" xmlns="http://www.w3.org/2000/svg">
  <g transform="matrix(1 0 0 1 -24 -523 )">
    <path d="M 70.6369140625 2.23134765625  C 71.0482421875 1.685546875  70.94541015625 0.910351562500001  70.399609375 0.4990234375  C 69.86171875 0.0876953124999993  69.0865234375 0.190527343750002  68.6751953125 0.728417968749998  L 40.1986328125 37.9615234375  L 51.351953125 9.92001953124999  C 51.605078125 9.28720703124999  51.29658203125 8.56738281249999  50.66376953125 8.32216796874999  C 50.03095703125 8.06904296875  49.3111328125 8.37753906249999  49.06591796875 9.01035156249999  L 48.883984375 9.46914062499999  L 36.3859375 40.88828125  L 22.88330078125 9.58779296874999  L 22.67763671875 9.10527343749999  C 22.40869140625 8.48037109374999  21.68095703125 8.18769531249999  21.0560546875 8.46455078124999  C 20.43115234375 8.73349609374999  20.14638671875 9.46123046874999  20.41533203125 10.0861328125  L 32.85009765625 38.9423828125  L 2.27734375 1.40869140625  C 1.8501953125 0.878710937499999  1.06708984375 0.799609374999999  0.545019531249999 1.23466796875  C 0.0150390624999996 1.66181640625  -0.0640625000000004 2.444921875  0.37099609375 2.9669921875  L 34.3134765625 44.6376953125  C 34.63779296875 45.033203125  35.151953125 45.1755859375  35.61865234375 45.04111328125  C 35.84013671875 45.2388671875  36.12490234375 45.349609375  36.4333984375 45.349609375  L 36.44921875 45.349609375  C 36.82099609375 45.34169921875  37.1611328125 45.1755859375  37.3826171875 44.89873046875  L 37.39052734375 44.89873046875  C 37.7623046875 44.89873046875  38.126171875 44.7326171875  38.37138671875 44.4162109375  L 70.6369140625 2.23134765625  Z " fill-rule="nonzero" fill="#6b400d" stroke="none" transform="matrix(1 0 0 1 24 523 )" />
  </g>
</svg>