<?xml version="1.0" encoding="utf-8"?>
<svg version="1.1" xmlns:xlink="http://www.w3.org/1999/xlink" width="70px" height="24px" xmlns="http://www.w3.org/2000/svg">
  <g transform="matrix(1 0 0 1 -24 -506 )">
    <path d="M 0.0941406249999996 15.14970703125  C 0.149511718749999 15.59267578125  0.434277343749999 15.964453125  0.845605468750001 16.1384765625  L 18.10556640625 23.3525390625  C 18.26376953125 23.4158203125  18.42197265625 23.4474609375  18.58017578125 23.4474609375  C 19.0626953125 23.4474609375  19.521484375 23.1626953125  19.71923828125 22.6880859375  C 19.9802734375 22.06318359375  19.68759765625 21.33544921875  19.05478515625 21.0744140625  L 17.59140625 20.46533203125  L 3.79609375 14.698828125  L 11.20791015625 9.193359375  L 11.33447265625 9.0984375  C 11.8802734375 8.69501953125  11.991015625 7.91982421875  11.58759765625 7.3740234375  C 11.17626953125 6.82822265625  10.408984375 6.71748046875  9.86318359375 7.1208984375  L 0.5845703125 14.01064453125  C 0.228613281249999 14.2716796875  0.0387695312499998 14.70673828125  0.0941406249999996 15.14970703125  Z M 58.59765625 6.9943359375  C 58.16259765625 7.51640625  58.22587890625 8.2916015625  58.74794921875 8.7345703125  L 59.072265625 9.01142578125  L 65.83544921875 14.69091796875  L 54.67421875 20.42578125  L 53.440234375 21.05859375  C 52.8390625 21.36708984375  52.59384765625 22.11064453125  52.91025390625 22.7197265625  C 53.13173828125 23.146875  53.55888671875 23.39208984375  54.009765625 23.39208984375  C 54.199609375 23.39208984375  54.389453125 23.34462890625  54.57138671875 23.2576171875  L 68.6119140625 16.0435546875  C 68.97578125 15.8537109375  69.22890625 15.49775390625  69.2763671875 15.08642578125  C 69.323828125 14.67509765625  69.15771484375 14.2716796875  68.84921875 14.002734375  L 60.337890625 6.84404296875  C 59.8158203125 6.408984375  59.040625 6.472265625  58.59765625 6.9943359375  Z M 12.52099609375 4.78740234375  C 12.4814453125 5.269921875  12.72666015625 5.7287109375  13.15380859375 5.966015625  L 20.1701171875 9.89736328125  C 20.2650390625 9.952734375  20.3599609375 9.99228515625  20.46279296875 10.016015625  L 24.19638671875 10.9810546875  C 24.29921875 11.00478515625  24.40205078125 11.02060546875  24.5048828125 11.02060546875  C 25.05068359375 11.02060546875  25.55693359375 10.648828125  25.69931640625 10.0951171875  C 25.73095703125 9.984375  25.7388671875 9.86572265625  25.73095703125 9.75498046875  C 25.71513671875 9.21708984375  25.3591796875 8.7345703125  24.81337890625 8.5921875  L 21.230078125 7.66669921875  L 16.70546875 5.13544921875  L 22.20302734375 3.15791015625  L 48.6625 3.15791015625  L 54.0888671875 5.42021484375  L 48.694140625 8.03056640625  C 48.24326171875 8.25205078125  47.99013671875 8.7029296875  47.998046875 9.16962890625  C 48.00595703125 9.3357421875  48.03759765625 9.509765625  48.11669921875 9.67587890625  C 48.409375 10.2849609375  49.14501953125 10.54599609375  49.76201171875 10.24541015625  L 57.616796875 6.44853515625  C 58.05185546875 6.2349609375  58.3287109375 5.7919921875  58.312890625 5.3015625  C 58.2970703125 4.81904296875  58.00439453125 4.383984375  57.553515625 4.20205078125  L 49.3744140625 0.784863281249997  C 49.22412109375 0.721582031249998  49.06591796875 0.689941406249998  48.8998046875 1  L 21.99736328125 1  C 21.85498046875 0.689941406249998  21.71259765625 0.713671874999998  21.578125 0.761132812499998  L 13.3357421875 3.72744140625  C 12.88486328125 3.8935546875  12.56845703125 4.3048828125  12.52099609375 4.78740234375  Z M 47.7765625 13.71796875  C 47.57880859375 13.28291015625  47.15166015625 12.99814453125  46.669140625 12.99814453125  L 24.837109375 12.80830078125  L 24.82919921875 12.80830078125  C 24.29130859375 12.80830078125  23.81669921875 13.15634765625  23.6505859375 13.6705078125  L 21.00859375 22.11064453125  C 20.88994140625 22.482421875  20.9611328125 22.88583984375  21.19052734375 23.20224609375  C 21.419921875 23.51865234375  21.7837890625 23.70849609375  22.179296875 23.70849609375  L 50.5134765625 23.89833984375  L 50.52138671875 23.89833984375  C 50.940625 23.89833984375  51.32822265625 23.684765625  51.5576171875 23.33671875  C 51.78701171875 22.98076171875  51.81865234375 22.53779296875  51.64462890625 22.15810546875  L 47.7765625 13.71796875  Z M 48.59130859375 21.4224609375  L 23.86416015625 21.2484375  L 25.73095703125 15.27626953125  L 45.8623046875 15.458203125  L 48.59130859375 21.4224609375  Z " fill-rule="nonzero" fill="#6b400d" stroke="none" transform="matrix(1 0 0 1 24 506 )" />
  </g>
</svg>