<?xml version="1.0" encoding="utf-8"?>
<svg version="1.1" xmlns:xlink="http://www.w3.org/1999/xlink" width="23px" height="21px" xmlns="http://www.w3.org/2000/svg">
  <g transform="matrix(1 0 0 1 -93 -464 )">
    <path d="M 18.1238486842105 17.6255434782609  C 20.8059210526316 15.6016304347826  22.8032894736842 12.9195652173913  22.8032894736842 9.89130434782609  C 22.8032894736842 4.51956521739131  17.4580592105263 0.144565217391305  11.4583881578947 0.144565217391305  C 5.103125 0.144565217391305  0.0983552631578934 4.52336956521739  0.0983552631578934 9.89130434782609  C 0.0983552631578934 15.270652173913  5.103125 19.6380434782609  11.4583881578947 19.6380434782609  C 12.7899671052632 19.6380434782609  14.1328947368421 19.2994565217391  15.4682565789474 18.9646739130435  L 19.1300986842105 20.9809782608696  L 18.1238486842105 17.6255434782609  Z M 9.45723684210526 6.87826086956522  C 9.45723684210526 7.71521739130435  8.78009868421053 8.4  7.94407894736842 8.4  C 7.10805921052632 8.4  6.43092105263158 7.71902173913043  6.43092105263158 6.87826086956522  C 6.43092105263158 6.0375  7.10805921052632 5.35652173913043  7.94407894736842 5.35652173913043  C 8.78009868421053 5.35652173913043  9.45723684210526 6.0375  9.45723684210526 6.87826086956522  Z M 16.8074013157895 6.86684782608696  C 16.8074013157895 7.70760869565218  16.1302631578947 8.38858695652174  15.2942434210526 8.38858695652174  C 14.4582236842105 8.38858695652174  13.7810855263158 7.70760869565218  13.7810855263158 6.86684782608696  C 13.7810855263158 6.02608695652174  14.4582236842105 5.34510869565217  15.2942434210526 5.34510869565217  C 16.1302631578947 5.34510869565217  16.8074013157895 6.02608695652174  16.8074013157895 6.86684782608696  Z " fill-rule="nonzero" fill="#00c800" stroke="none" transform="matrix(1 0 0 1 93 464 )" />
  </g>
</svg>