<?xml version="1.0" encoding="utf-8"?>
<svg version="1.1" xmlns:xlink="http://www.w3.org/1999/xlink" width="27px" height="24px" xmlns="http://www.w3.org/2000/svg">
  <g transform="matrix(1 0 0 1 -78 -454 )">
    <path d="M 26.7975 9.2888888888889  C 25.65 4.02222222222222  19.94625 0.107407407407408  13.43625 0.107407407407408  C 6.1575 0.107407407407408  0.195 5.00740740740741  0.195 11.2296296296296  C 0.195 14.8222222222222  2.17875 17.7703703703704  5.49375 20.0592592592593  L 4.17 23.9925925925926  L 8.7975 21.7  C 10.455 22.0222222222222  11.7825 22.3555555555556  13.43625 22.3555555555556  C 13.8525 22.3555555555556  14.265 22.337037037037  14.67375 22.3037037037037  C 14.415 21.4296296296296  14.265 20.5148148148148  14.265 19.562962962963  C 14.265 13.8481481481482  19.23375 9.21111111111112  25.5225 9.21111111111112  C 25.95375 9.21111111111112  26.3775 9.24074074074075  26.7975 9.2888888888889  Z M 10.78875 7.3037037037037  C 10.78875 8.28518518518518  9.9825 9.08148148148148  8.98875 9.08148148148148  C 7.995 9.08148148148148  7.18875 8.28518518518518  7.18875 7.3037037037037  C 7.18875 6.32222222222222  7.995 5.52592592592593  8.98875 5.52592592592593  C 9.9825 5.52592592592593  10.78875 6.32222222222222  10.78875 7.3037037037037  Z M 20.03625 7.3037037037037  C 20.03625 8.28518518518518  19.23 9.08148148148148  18.23625 9.08148148148148  C 17.2425 9.08148148148148  16.43625 8.28518518518518  16.43625 7.3037037037037  C 16.43625 6.32222222222222  17.2425 5.52592592592593  18.23625 5.52592592592593  C 19.23 5.52592592592593  20.03625 6.32222222222222  20.03625 7.3037037037037  Z " fill-rule="nonzero" fill="#00c800" stroke="none" transform="matrix(1 0 0 1 78 454 )" />
  </g>
</svg>