<?xml version="1.0" encoding="utf-8"?>
<svg version="1.1" xmlns:xlink="http://www.w3.org/1999/xlink" width="54px" height="54px" xmlns="http://www.w3.org/2000/svg">
  <g transform="matrix(1 0 0 1 -153 -282 )">
    <path d="M 7.65046867289719 11.8224366308411  L 7.65046867289719 7.63828101168224  L 11.8346242920561 7.63828101168224  L 11.8346242920561 11.8224366308411  L 7.65046867289719 11.8224366308411  Z M 19.3662463457944 0.106788028037383  L 19.3662463457944 1  L 1 1  L 1 19.3541232196262  L 7.65046867289719 19.3541232196262  L 7.65046867289719 22.7014605841121  L 11.8346242920561 22.7014605841121  L 11.8346242920561 19.3541232196262  L 19.3661818107477 19.3541232196262  L 19.3661818107477 15.1698385303738  L 22.7135191752336 15.1698385303738  L 22.7135191752336 11.822436567757  L 20 11.822436567757  L 20 0.106788028037383  L 19.3662463457944 0.106788028037383  Z M 16 15.1698385303738  L 15.1820261915888 16  L 5 16  L 5 5  L 16 5  L 16 15.1698385303738  Z M 7.65046867289719 46.1328223247664  L 7.65046867289719 41.9486021705607  L 11.8346242920561 41.9486021705607  L 11.8346242920561 46.1328223247664  L 7.65046867289719 46.1328223247664  Z M 41.9607898317757 11.8224366308411  L 41.9607898317757 7.63828101168224  L 46.1450099859813 7.63828101168224  L 46.1450099859813 11.8224366308411  L 41.9607898317757 11.8224366308411  Z M 26.8977393294393 22.7226344509346  L 26.8977393294393 26.5481905794393  L 26.8977393294393 31.0697718224299  L 31.0819594836449 31.0697718224299  L 31.0819594836449 26.8855516682243  L 34.4292323130841 26.8855516682243  L 34.4292323130841 22.7013960490654  L 31.0819594836449 22.7013960490654  L 31.0819594836449 19.3541232196262  L 26.8977393294393 19.3541232196262  L 26.8977393294393 22.7226344509346  Z M 26.8977393294393 38.0247297686916  L 26.8977393294393 41.8502858971963  L 26.8977393294393 46.1328868598131  L 31.0819594836449 46.1328868598131  L 31.0819594836449 41.8502858971963  L 31.0819594836449 38.6012648060748  L 34.4292323130841 38.6012648060748  L 34.4292323130841 34.4170446518692  L 30.9528507827103 34.4170446518692  L 26.8977393294393 34.4170446518692  L 26.8977393294393 38.0247297686916  Z M 31.0819594836449 49.4801596892523  L 31.0819594836449 46.1328868598131  L 34.4292323130841 46.1328868598131  L 34.4292323130841 49.4801596892523  L 31.0819594836449 49.4801596892523  Z M 27.1272946542056 49.4801596892523  L 22.7135837102804 49.4801596892523  L 22.7135837102804 53.6643798434579  L 27.1272946542056 53.6643798434579  L 31.0819594836449 53.6643798434579  L 31.0819594836449 49.4801596892523  L 27.1272946542056 49.4801596892523  Z M 38.6134524672897 41.9486021705607  L 38.6134524672897 38.6012648060748  L 34.4292323130841 38.6012648060748  L 34.4292323130841 41.8502858971963  L 34.4292323130841 46.1328868598131  L 38.6038338434579 46.1328868598131  L 41.9607898317757 46.1328868598131  L 41.9607898317757 41.9486021705607  L 38.6134524672897 41.9486021705607  Z M 41.9607898317757 49.5013980911215  L 41.9607898317757 53.6643798434579  L 46.255010635514 53.6643798434579  L 50.0805021658879 53.6643798434579  L 53.6765675046729 53.6643798434579  L 53.6765675046729 49.4801596892523  L 50.0805021658879 49.4801596892523  L 46.145074521028 49.4801596892523  L 46.145074521028 46.1328868598131  L 41.9607898317757 46.1328868598131  L 41.9607898317757 49.5013980911215  Z M 50.0805021658879 26.8855516682243  L 53.6765675046729 26.8855516682243  L 53.6765675046729 22.7013960490654  L 50.0805021658879 22.7013960490654  L 46.145074521028 22.7013960490654  L 46.145074521028 26.8855516682243  L 50.0805021658879 26.8855516682243  Z M 49.4923473504673 46.1328223247664  L 49.4923473504673 41.9486021705607  L 53.6765675046729 41.9486021705607  L 53.6765675046729 46.1328223247664  L 49.4923473504673 46.1328223247664  Z M 22.7135837102804 19.3539941495327  L 22.7135837102804 15.1698385303738  L 26.8977393294393 15.1698385303738  L 26.8977393294393 19.3539941495327  L 22.7135837102804 19.3539941495327  Z M 41.9607898317757 22.7013960490654  L 41.9607898317757 20  L 53 20  L 53 1  L 34.4292323130841 1  L 34.4292323130841 4.29094364719626  L 30.9528507827103 4.29094364719626  L 26.8977393925234 4.29094364719626  L 26.8977393925234 7.63828101168224  L 30.9528507827103 7.63828101168224  L 34.429296911215 7.63828101168224  L 34.429296911215 11.8224366308411  L 31.0818949485981 11.8224366308411  L 31.0818949485981 15.1698385934579  L 34.429296911215 15.1698385934579  L 34.429296911215 19.3539942126168  L 38.613387932243 19.3539942126168  L 38.613387932243 22.7013315771028  L 41.9607898948598 22.7013315771028  Z M 38 4.29094364719626  L 38.6134524672897 5  L 49 5  L 49 16  L 38 16  L 38 4.29094364719626  Z M 38.6134524672897 34.4170446518692  L 38.6134524672897 31.0697718224299  L 41.9607898317757 31.0697718224299  L 41.9607898317757 34.4170446518692  L 38.6134524672897 34.4170446518692  Z M 46.145074521028 34.1992382383178  L 46.145074521028 38.6012648060748  L 41.9607898317757 38.6012648060748  L 41.9607898317757 41.9486021705607  L 46.255010635514 41.9486021705607  L 49.4923473504673 41.9486021705607  L 49.4923473504673 38.0247297686916  L 49.4923473504673 34.4170446518692  L 53.6765675046729 34.4170446518692  L 53.6765675046729 31.0697718224299  L 50.0805021658879 31.0697718224299  L 46.145074521028 31.0697718224299  L 46.145074521028 34.1992382383178  Z M 22.7135837102804 11.8224366308411  L 22.7135837102804 7.63828101168224  L 26.8977393294393 7.63828101168224  L 26.8977393294393 11.8224366308411  L 22.7135837102804 11.8224366308411  Z M 11.8346242920561 31.0697718224299  L 11.8346242920561 26.8855516682243  L 15.1820261915888 26.8855516682243  L 15.1820261915888 31.0697718224299  L 11.8346242920561 31.0697718224299  Z M 22.7135837102804 26.5481905794393  L 22.7135837102804 22.7013960490654  L 19.4761824602804 22.7013960490654  L 15.1820261915888 22.7013960490654  L 15.1820261915888 26.8855516682243  L 19.3662463457944 26.8855516682243  L 19.3662463457944 31.0697718224299  L 22.7135837102804 31.0697718224299  L 22.7135837102804 26.5481905794393  Z M 19.3662463457944 46.1328868598131  L 19.3662463457944 38.6012648060748  L 22.7135837102804 38.6012648060748  L 22.7135837102804 34.4171091869159  L 19.4761823971963 34  L 7.65046867289719 34  L 7.65046867289719 30.3737466448598  L 7.65046867289719 26.885616203271  L 4.17402254439252 26.885616203271  L 0.118975689252337 26.885616203271  L 0.118975689252337 31.0697718224299  L 4.30319584345794 31.0697718224299  L 4.30319584345794 34.4171091869159  L 1 34.4171091869159  L 1 53  L 19.3663108808411 53  L 19.3663108808411 49.4802242242991  L 22.7136482453271 49.4802242242991  L 22.7136482453271 46.1328868598131  L 19.3662463457944 46.1328868598131  Z M 16 49.4801596892523  L 15.1820261915888 49  L 5 49  L 5 38  L 16 38  L 16 49.4801596892523  Z M 22.7135837102804 34.4170446518692  L 22.7135837102804 31.0697718224299  L 26.8977393294393 31.0697718224299  L 26.8977393294393 34.4170446518692  L 22.7135837102804 34.4170446518692  Z M 34.4292323130841 26.8855516682243  L 38.6134524672897 26.8855516682243  L 38.6134524672897 31.0697718224299  L 34.4292968481308 31.0697718224299  L 34.4292968481308 26.8855516682243  Z M 41.9607898317757 31.0697718224299  L 41.9607898317757 26.8855516682243  L 46.1450099859813 26.8855516682243  L 46.1450099859813 31.0697718224299  L 41.9607898317757 31.0697718224299  Z " fill-rule="nonzero" fill="#000000" stroke="none" transform="matrix(1 0 0 1 153 282 )" />
  </g>
</svg>