<?xml version="1.0" encoding="utf-8"?>
<svg version="1.1" xmlns:xlink="http://www.w3.org/1999/xlink" width="23px" height="31px" xmlns="http://www.w3.org/2000/svg">
  <g transform="matrix(1 0 0 1 -254 -454 )">
    <path d="M 22.8077202963918 21.7536617871094  C 22.8077202963918 26.8721704482422  18.7663733724227 31  13.7551031701031 31  L 1.1056872693299 31  C 0.620725630154639 31  0.216590940721649 30.5872170478516  0.216590940721649 30.0918774931641  L 0.216590940721649 28.3994673681641  C 0.216590940721649 27.9041278134766  0.620725630154639 27.4913448613281  1.1056872693299 27.4913448613281  C 1.59064890850515 27.4913448613281  1.99478359793814 27.9041278134766  1.99478359793814 28.3994673681641  L 1.99478359793814 29  L 13.7551031701031 29  C 17.7560366340206 29.1837549863281  21.0295276391753 25.8402130527344  21 21.7536617871094  L 21 7.59520640429688  C 21.0295276391753 7.09986684960937  21.4336623286082 6.68708389746094  21.9186239677835 6.68708389746094  C 22.4035856069588 6.68708389746094  22.8077202963918 7.09986684960937  22.8077202963918 7.59520640429688  L 22.8077202963918 21.7536617871094  Z M 2 24.7669773710938  C 1.99478359793814 25.2623169257812  1.59064890850515 25.6750998779297  1.1056872693299 25.6750998779297  C 0.620725630154639 25.6750998779297  0.216590940721649 25.2623169257813  0.216590940721649 24.7669773710938  L 0.216590940721649 9.28761649902344  C 0.21659094072165 4.16910786816406  4.29835132474227 0.0412782861328125  9.26920806701031 0  L 21.9186239677835 0  C 22.4035856069588 0.0412782861328125  22.8077202963918 0.45406123828125  22.8077202963918 0.94940079296875  L 22.8077202963918 3.63249002734375  C 22.8077202963918 4.12782958203125  22.4035856069588 4.54061253417969  21.9186239677835 4.54061250390625  C 21.4336623286083 4.54061250390625  21.0295276391753 4.12782955175781  21.0295276391753 3.63249002734375  L 21.0295276391753 2  L 9.26920806701031 2  C 5.26827460309279 1.85752329980469  1.99478359793814 5.20106523339844  2 9.28761649902344  L 2 24.7669773710938  Z " fill-rule="nonzero" fill="#787878" stroke="none" transform="matrix(1 0 0 1 254 454 )" />
  </g>
</svg>