<?xml version="1.0" encoding="utf-8"?>
<svg version="1.1" xmlns:xlink="http://www.w3.org/1999/xlink" width="7px" height="22px" xmlns="http://www.w3.org/2000/svg">
  <g transform="matrix(1 0 0 1 -263 -458 )">
    <path d="M 1.22907387931034 1.230034025  L 0.118279090517241 1.230034025  L 0.0359979827586196 0.146796863888889  L 1.14679277155172 0.146796863888889  L 1.22907387931034 1.230034025  Z M 6.94761006896552 7.10451249444445  L 6.98875063793103 7.10451249444445  L 0.57082510775862 7.10451249444445  C 0.447403461206896 7.10451249444445  0.323981814655173 7.06284953611111  0.241700706896552 6.93786063055556  C 0.15941959913793 6.85453468333333  0.0771385215517232 6.72954577777778  0.0771385215517232 6.56289391388889  L 0.0771385215517232 1.85497855277778  L 1.18793334051724 1.85497855277778  L 1.18793334051724 6.18792719722222  L 6.94761006896552 6.18792719722222  L 6.94761006896552 7.10451249444445  Z M 2.42214977586207 6.02127533333333  L 1.47591717241379 6.02127533333333  L 1.68161989655172 4.10477882222222  L 1.39363606465517 4.10477882222222  L 1.39363606465517 3.35484538888889  L 2.17530648275862 3.35484538888889  L 2.17530648275862 3.14653056666667  L 3.28610130172414 3.14653056666667  L 3.28610130172414 3.35484538888889  L 4.06777171982759 3.35484538888889  L 4.06777171982759 4.10477882222222  L 2.5867119612069 4.10477882222222  L 2.54557142241379 4.31309364444444  L 4.06777171982759 4.31309364444444  L 4.06777171982759 5.60464565833333  C 4.06777171982759 5.72963456388889  4.02663118103448 5.85462346944444  3.90320950431035 5.93794938611111  C 3.82092839655172 6.02127533333333  3.69750675 6.06293829166667  3.57408513362069 6.06293829166667  L 2.75127417672414 6.06293829166667  L 2.66899306896552 5.35466784722222  L 3.08039854741379 5.35466784722222  L 3.08039854741379 5.02136411944444  L 2.54557142241379 5.02136411944444  L 2.42214977586207 6.02127533333333  Z M 4.10891225862069 0.355111716666667  L 4.10891225862069 0.396774675000001  L 4.10891225862069 2.56324899722222  C 4.10891225862069 2.64657494444445  4.10891225862069 2.68823790277778  4.06777171982759 2.72990086111111  L 3.94435007327586 2.85488976666667  C 3.90320953448276 2.896552725  3.82092842672414 2.93821571388889  3.77978785775862 2.93821571388889  C 3.69750675 2.93821571388889  3.6563662112069 2.97987867222222  3.61522567241379 2.97987867222222  L 1.5170577112069 2.97987867222222  L 1.5170577112069 0.813404350000001  C 1.5170577112069 0.730078402777778  1.5170577112069 0.688415444444446  1.55819825 0.605089497222223  L 1.68161989655172 0.480100591666668  C 1.72276043534483 0.438437633333335  1.80504154310345 0.396774644444445  1.84618211206897 0.396774675000001  C 1.92846321982759 0.396774675000001  1.96960375862069 0.355111716666667  2.0518848362069 0.355111716666667  L 2.21644702155172 0.355111716666667  L 2.25758759051724 0.105133905555556  L 3.36838237931034 0.105133905555556  L 3.28610130172414 0.355111716666667  L 4.10891225862069 0.355111716666667  Z M 3.1215390862069 1.10504511944444  L 2.42214977586207 1.10504511944444  L 2.42214977586207 1.35502293055556  L 3.1215390862069 1.35502293055556  L 3.1215390862069 1.10504511944444  Z M 2.42214977586207 2.31327118611111  L 3.1215390862069 2.31327118611111  L 3.1215390862069 2.02163041666667  L 2.42214977586207 2.02163041666667  L 2.42214977586207 2.31327118611111  Z M 4.64373938362069 0.105133905555555  L 5.67225309482759 0.105133905555555  L 5.58997198706897 0.688415444444444  L 6.94761006896552 0.688415444444444  L 6.94761006896552 1.48001183611111  L 6.78304788362069 1.48001183611111  L 6.78304788362069 3.06320461944444  L 6.24822075862069 4.18810473888889  L 6.98875063793103 5.979612375  L 5.87795581896552 5.979612375  L 5.67225309482758 5.43799379444445  L 5.50769090948276 5.77129752222222  C 5.46655037068965 5.85462346944445  5.42540980172413 5.89628642777778  5.34312869396551 5.93794938611111  C 5.26084758620689 5.97961234444445  5.17856650862069 5.97961234444445  5.09628540086206 5.979612375  L 4.47917719827586 5.979612375  L 4.39689609051724 5.18801598333333  L 4.72602049137931 5.18801598333333  L 5.17856650862069 4.18810473888889  L 4.47917719827586 2.64657494444444  L 4.19119336637931 2.64657494444444  L 4.64373938362069 0.105133905555555  Z M 5.30198815517241 2.31327118611111  L 5.46655034051724 2.31327118611111  L 5.71339363362069 2.93821571388889  L 5.79567474137931 2.81322680833333  L 5.79567474137931 1.52167479444444  L 5.46655034051724 1.52167479444444  L 5.30198815517241 2.31327118611111  Z M 2.13416594396552 13.64559845  L 2.13416594396552 14.5205207888889  L 1.18793334051724 14.5205207888889  C 1.10565223275862 14.5205207888889  1.02337115517241 14.5205207888889  0.982230586206898 14.4788578305556  C 0.899949478448277 14.4371948722222  0.858808939655173 14.4371948722222  0.776527862068968 14.3955318833333  C 0.735387323275864 14.353868925  0.653106215517243 14.3122059361111  0.611965646551726 14.2288800194444  C 0.570825107758622 14.1455540722222  0.570825107758622 14.1038911138889  0.570825107758622 14.0205651666667  L 0.570825107758622 10.1875721138889  L 0.0359979827586213 10.1875721138889  L 0.0359979827586213 9.27098684722222  L 1.68161989655173 9.27098684722222  L 1.68161989655173 13.64559845  L 2.13416594396552 13.64559845  Z M 1.76390100431034 8.771031225  L 0.653106215517241 8.771031225  L 0.529684568965517 7.43781625277778  L 1.64047935775862 7.43781625277778  L 1.76390100431034 8.771031225  Z M 2.17530648275862 10.6458647777778  L 2.17530648275862 9.85426838611111  L 4.02663115086207 9.85426838611111  L 4.02663115086207 9.604290575  L 2.33986866810345 9.604290575  L 2.33986866810345 8.771031225  L 4.02663115086207 8.771031225  L 4.02663115086207 8.52105341388889  L 2.17530648275862 8.52105341388889  L 2.17530648275862 7.68779406388889  L 4.02663115086207 7.68779406388889  L 4.02663115086207 7.43781625277778  L 5.13742596982759 7.43781625277778  L 5.13742596982759 7.68779406388889  L 6.98875063793104 7.68779406388889  L 6.98875063793104 8.52105341388889  L 5.13742596982759 8.52105341388889  L 5.13742596982759 8.771031225  L 6.82418845258621 8.771031225  L 6.82418845258621 9.604290575  L 5.13742596982759 9.604290575  L 5.13742596982759 9.85426838611111  L 6.98875063793104 9.85426838611111  L 6.98875063793104 10.6458647777778  L 2.17530648275862 10.6458647777778  Z M 5.13742596982758 14.5621837472222  L 5.13742596982758 13.7705873555556  L 5.71339363362069 13.7705873555556  L 5.71339363362069 13.5622725333333  L 3.45066348706897 13.5622725333333  L 3.45066348706897 14.5205207888889  L 2.33986866810345 14.5205207888889  L 2.33986866810345 11.3124722638889  C 2.33986866810345 11.2291463166667  2.33986866810345 11.1874833583333  2.38100923706897 11.1041574111111  C 2.42214977586207 11.0624944527778  2.46329034482759 11.0208314638889  2.5455714224138 10.9791685055556  C 2.5867119612069 10.9375055472222  2.66899306896552 10.8958425583333  2.75127417672414 10.8958425888889  C 2.83355528448276 10.8958426194444  2.87469582327586 10.8541796305556  2.95697690086207 10.8541796  L 6.86532899137931 10.8541796  L 6.86532899137931 14.1038911138889  C 6.86532899137931 14.1872170611111  6.86532899137931 14.2288800194444  6.82418845258621 14.3122059361111  C 6.78304791379311 14.3538688944444  6.74190734482759 14.3955318833333  6.65962623706897 14.4371948416667  C 6.61848569827586 14.4788578  6.53620459051724 14.5205207888889  6.45392351293104 14.5205207888889  C 6.37164243534483 14.5205207888889  6.33050186637931 14.5621837472222  6.24822075862069 14.5621837472222  L 5.13742596982758 14.5621837472222  Z M 5.71339363362069 11.8957538027778  L 5.71339363362069 11.6457759916667  L 3.45066348706896 11.6457759916667  L 3.45066348706896 11.8957538027778  L 5.71339363362069 11.8957538027778  Z M 3.45066348706897 12.6456872361111  L 3.45066348706897 12.8540020583333  L 5.71339363362069 12.8540020583333  L 5.71339363362069 12.6456872361111  L 3.45066348706897 12.6456872361111  Z M 0.20056016810345 14.9788134222222  L 0.118279090517241 14.9788134222222  L 2.87469579310345 14.9788134222222  L 2.87469579310345 15.8953987194444  L 1.55819825 15.8953987194444  L 1.27021441810345 17.3119396388889  L 2.83355525431035 17.3119396388889  L 2.83355525431035 21.2699215972222  C 2.83355525431035 21.3532475444444  2.83355525431035 21.3949105027778  2.79241471551724 21.4782364194444  C 2.75127417672414 21.5198993777778  2.71013360775862 21.603225325  2.66899306896552 21.6448882833333  C 2.62785253017241 21.6865512416667  2.54557142241379 21.7282142305556  2.50443088362069 21.7282142305556  C 2.42214977586207 21.7282142305556  2.38100923706896 21.7698771888889  2.29872812931035 21.7698771888889  L 0.365122353448276 21.7698771888889  L 0.365122353448276 18.6868175694444  L 0.0771385215517249 18.6868175694444  L 0.611965646551726 15.9370617083333  L 0.20056016810345 15.9370617083333  L 0.20056016810345 14.9788134222222  Z M 1.76390100431034 18.2285249361111  L 1.35249552586207 18.2285249361111  L 1.35249552586207 20.8116289333333  L 1.76390100431034 20.8116289333333  L 1.76390100431034 18.2285249361111  Z M 3.03925800862069 20.4366622166667  L 3.03925800862069 19.5200769194444  L 5.58997198706897 19.5200769194444  L 5.58997198706897 20.4366622166667  L 3.03925800862069 20.4366622166667  Z M 4.52031773706896 21.7698771888889  L 4.47917719827586 20.9366178388889  L 5.91909638793103 20.9366178388889  L 5.91909638793103 19.0201213277778  L 3.94435007327586 19.0201213277778  C 3.86206896551724 19.0201213277778  3.77978788793103 19.0201213277778  3.69750678017241 18.9784583388889  C 3.61522567241379 18.9367953805556  3.57408513362069 18.8951323916667  3.49180402586207 18.8534694333333  C 3.40952291810345 18.811806475  3.36838237931034 18.7284805277778  3.32724184051724 18.6868175694444  C 3.28610130172414 18.6034916222222  3.28610130172414 18.5201657055556  3.28610130172414 18.4368397583333  L 3.28610130172414 15.9370617083333  L 4.39689609051724 15.9370617083333  L 4.39689609051724 18.0618730722222  L 5.42540980172414 18.0618730722222  L 5.42540980172414 15.6870838972222  L 3.16267965517241 15.6870838972222  L 3.16267965517241 14.7704986  L 6.53620459051724 14.7704986  L 6.53620459051724 18.0618730722222  L 6.98875063793103 18.0618730722222  L 6.98875063793103 21.2699215972222  C 6.98875063793103 21.4365734611111  6.94761009913793 21.5615623666667  6.82418845258621 21.6448882833333  C 6.70076680603448 21.7282142305556  6.57734515948276 21.7698771888889  6.41278294396552 21.7698771888889  L 4.52031773706896 21.7698771888889  Z " fill-rule="nonzero" fill="#4ab52e" stroke="none" transform="matrix(1 0 0 1 263 458 )" />
  </g>
</svg>