<?xml version="1.0" encoding="utf-8"?>
<svg version="1.1" xmlns:xlink="http://www.w3.org/1999/xlink" width="6px" height="14px" xmlns="http://www.w3.org/2000/svg">
  <g transform="matrix(1 0 0 1 -250 -363 )">
    <path d="M 5.83548387096774 4.63441176470588  C 5.90806451612903 4.75794117647059  5.94435483870968 4.90411764705882  5.94435483870968 5.075  C 5.94435483870968 5.24382352941176  5.90806451612903 5.39205882352941  5.83548387096774 5.51558823529412  C 5.76290322580645 5.63911764705882  5.6758064516129 5.70088235294118  5.57661290322581 5.70088235294118  L 0.423387096774194 5.70088235294118  C 0.324193548387097 5.70088235294118  0.237096774193549 5.63911764705882  0.164516129032258 5.51558823529412  C 0.091935483870968 5.39205882352941  0.0556451612903229 5.24588235294118  0.0556451612903229 5.075  C 0.0556451612903229 4.90617647058824  0.091935483870968 4.75794117647059  0.164516129032258 4.63441176470588  L 2.74112903225806 0.249117647058824  C 2.81370967741936 0.125588235294118  2.89959677419355 0.0638235294117652  3 0.0638235294117652  C 3.0991935483871 0.0638235294117652  3.18629032258064 0.125588235294118  3.25887096774194 0.249117647058824  L 5.83548387096774 4.63441176470588  Z M 5.57661290322581 8.20647058823529  C 5.67701612903226 8.20647058823529  5.76290322580645 8.26823529411765  5.83548387096774 8.39176470588235  C 5.90806451612903 8.51529411764706  5.94435483870968 8.66352941176471  5.94435483870968 8.83235294117647  C 5.94435483870968 9.00117647058823  5.90806451612903 9.14941176470588  5.83548387096774 9.27294117647059  L 3.25887096774194 13.6582352941176  C 3.18629032258064 13.7817647058824  3.0991935483871 13.8435294117647  3 13.8435294117647  C 2.9008064516129 13.8435294117647  2.81370967741936 13.7817647058824  2.74112903225806 13.6582352941176  L 0.164516129032258 9.27294117647059  C 0.091935483870968 9.14941176470588  0.0556451612903229 9.00323529411765  0.0556451612903229 8.83235294117647  C 0.0556451612903229 8.6635294117647  0.091935483870968 8.51529411764706  0.164516129032258 8.39176470588235  C 0.237096774193549 8.26823529411765  0.322983870967743 8.20647058823529  0.423387096774194 8.20647058823529  L 5.57661290322581 8.20647058823529  Z " fill-rule="nonzero" fill="#ffffff" stroke="none" transform="matrix(1 0 0 1 250 363 )" />
  </g>
</svg>