<?xml version="1.0" encoding="utf-8"?>
<svg version="1.1" xmlns:xlink="http://www.w3.org/1999/xlink" width="62px" height="62px" xmlns="http://www.w3.org/2000/svg">
  <g transform="matrix(1 0 0 1 -38 -340 )">
    <path d="M 12.6932 13.2886665556641  C 17.3535044524002 8.37392715126879  23.8341217643725 5.59828202900533  30.6070665556641 5.61616655566408  C 36.9103279624819 5.6021478042988  42.9778711468716 8.01125959750169  47.5547665556641 12.345233444336  C 57.4018575443924 21.7293657881137  57.8233378645644 37.3038234478366  48.4982 47.2068  C 39.1140676562222 57.0538909887284  23.5396099964994 57.4753713089003  13.6366334443359 48.150233444336  C 3.7895422364594 38.7661010651476  3.36806191340717 23.1916431502213  12.6932 13.2886665556641  Z M 29.8796 22.4502000000001  L 29.8796 22.455883444336  C 25.1075362739062 22.4602622877623  20.51665113845 20.6287921539367  17.058 17.340883444336  L 16.9841165556641 17.4204500000001  C 20.7035336042599 20.9421351989427  22.810533198324 25.8387462382275  22.810533198324 30.9608873746896  C 22.810533198324 35.732096175635  20.9816308716202 40.3218004514719  17.7002165556641 43.785433444336  L 17.7797834443359 43.8593165556641  C 21.301468634245 40.139899608111  26.1980796046802 38.0329000793112  31.3202206615597 38.0329000793112  C 36.0914293789328 38.0329000793112  40.6811335809159 39.861802342101  44.1447665556641 43.1432165556641  L 44.21865 43.0636500000001  C 40.4992329514042 39.5419648010574  38.3922333573401 34.6453537617726  38.3922333573401 29.5232126253105  C 38.3922333573401 24.7520038243651  40.2211356840439 20.1622995485283  43.50255 16.6986665556641  L 43.422983444336 16.624783444336  C 39.9039698274418 20.3496537916014  35.0038623857129 22.457337379894  29.8796 22.4502000000001  Z M 30.639615765863 0.103315878020851  C 30.6287660267483 0.103315878020851  30.6179162884586 0.103321733460064  30.6070665556641 0.103333444335959  C 13.9652161011453 0.121296158136772  0.483849210198951 13.6172222849619  0.483849210198951 30.2590824336849  C 0.483849210198951 46.9136524218357  13.9850457777123 60.414848989349  30.639615765863 60.414848989349  C 38.9097374366279 60.414848989349  46.8169319790766 57.018372580224  52.5106334443359 51.0203165556641  C 57.8298599112096 45.41675294238  60.7953823215271 37.9852778346576  60.7953823215271 30.2590824336849  C 60.7953823215271 13.6045124455342  47.2941857540138 0.103315878020851  30.639615765863 0.103315878020851  Z M 28.1348165556641 27.9346165556641  C 28.7145165556641 27.9762942594402  29.2961110371094 27.9971332223308  29.8796 27.997133444336  C 30.9020127398439 27.9961768910626  31.923314533433 27.9297352528237  32.937233444336 27.7982165556641  C 32.8237249609958 29.3937648066805  32.8675081320671 30.9966110265886  33.06795 32.583583444336  C 32.48825 32.5419057405599  31.9066555185547 32.5210667776693  31.3231665556641 32.5210665556641  C 30.3007544397244 32.5220386781554  29.2794537519374 32.5884802516916  28.265533444336 32.719983444336  C 28.3790418172423 31.1244351824025  28.3352585346301 29.5215889624649  28.1348165556641 27.9346165556641  Z " fill-rule="nonzero" fill="#e8d4ab" stroke="none" transform="matrix(1 0 0 1 38 340 )" />
  </g>
</svg>