<?xml version="1.0" encoding="utf-8"?>
<svg version="1.1" xmlns:xlink="http://www.w3.org/1999/xlink" width="61px" height="61px" xmlns="http://www.w3.org/2000/svg">
  <g transform="matrix(1 0 0 1 -145 -231 )">
    <path d="M 60.6777 30.7756334443359  C 60.658907940784 47.3470816251956  47.2297816251956 60.776207940784  30.6583334443359 60.795  C 50.6712444814453 60.795  10.6454224072266 60.795  30.6583334443359 60.795  C 14.0790950960621 60.795  0.63896688867186 47.3548717926097  0.63896688867186 30.7756334443359  C 0.63896688867186 14.1963950960621  14.0790950960621 0.756266888671846  30.6583334443359 0.756266888671846  C 47.2375717926097 0.756266888671846  60.6777 14.1963950960621  60.6777 30.7756334443359  Z M 55.1535 30.730166555664  C 55.1409669259767 17.2070543937497  44.1814456062502 6.24753307402328  30.6583334443359 6.23499999999999  C 17.1300265110774 6.23499999999997  6.16316688867187 17.2018596224055  6.16316688867187 30.730166555664  C 6.16316688867187 44.2584734889226  17.1300265110774 55.2253331113281  30.6583334443359 55.2253331113281  C 44.1866403775944 55.2253331113281  55.1535 44.2584734889226  55.1535 30.730166555664  Z " fill-rule="nonzero" fill="#e8d4ab" stroke="none" transform="matrix(1 0 0 1 145 231 )" />
  </g>
</svg>