<?xml version="1.0" encoding="utf-8"?>
<svg version="1.1" xmlns:xlink="http://www.w3.org/1999/xlink" width="77px" height="76px" xmlns="http://www.w3.org/2000/svg">
  <g transform="matrix(1 0 0 1 -242 -175 )">
    <path d="M 76.435033444336 37.9444334443359  C 76.3694961872228 17.0240884850114  59.4248211008215 0.0819523566469868  38.5044665556641 0.0195499999999953  C 17.581902302968 0.0819686888950315  0.636318688895102 17.027552302968  0.573900000000066 37.9501165556641  C 0.639437256161244 58.8704613854931  17.5841121405501 75.8125974606173  38.5044665556641 75.875  C 59.4270309384075 75.8125814938599  76.3726147545083 58.8669978265314  76.435033444336 37.9444334443359  Z M 67.2735 37.87055  L 67.2735000000001 38.0353665556641  C 51.4287451405261 38.0353665556641  38.5840334443359 50.8800782518543  38.5840334443359 66.7248331113282  L 38.4192165556641 66.7248334443359  C 38.4192165556641 50.8800782518543  25.5745048594738 38.0353665556641  9.72975000000002 38.0353665556641  L 9.72975000000002 37.87055  C 25.574504859474 37.87055  38.419216555664 25.0258383038098  38.419216555664 9.18108344433594  L 38.5840334443359 9.18108344433595  C 38.5840334443359 25.0258383038098  51.4287451405261 37.87055  67.2735 37.87055  Z " fill-rule="nonzero" fill="#d5382e" stroke="none" transform="matrix(1 0 0 1 242 175 )" />
  </g>
</svg>