<?xml version="1.0" encoding="utf-8"?>
<svg version="1.1" xmlns:xlink="http://www.w3.org/1999/xlink" width="86px" height="87px" xmlns="http://www.w3.org/2000/svg">
  <g transform="matrix(1 0 0 1 -238 -170 )">
    <path d="M 42.5044665556641 5.01386655566405  L 42.5044665556641 5.01955  C 63.4270309384075 5.08196850614006  80.3726147545083 22.0275521734686  80.435033444336 42.9501165556641  C 80.3694961872228 63.8704615149885  63.4248211008215 80.812597643353  42.5044665556641 80.875  C 21.581902302968 80.812581311105  4.63631868889505 63.8669976970319  4.57390000000007 42.9444334443359  C 4.6363185061401 22.0218690615925  21.5819021734687 5.07628524549178  42.5044665556641 5.01386655566405  Z M 13.7354334443359 43.024  C 29.5801883038097 43.024  42.4249 55.8687116961902  42.4249 71.7134665556641  L 42.589716555664 71.7134665556641  C 42.589716555664 55.8687116961902  55.4344282518543 43.024  71.2791831113282 43.024  L 71.279183444336 42.8591834443359  C 55.4344282518542 42.8591834443359  42.589716555664 30.0144717481457  42.589716555664 14.1697168886719  L 42.4249 14.1697165556641  C 42.4249 30.0144717481457  29.5801883038097 42.8591834443359  13.7354334443359 42.8591834443359  L 13.7354334443359 43.024  Z M 42.504466555664 0.603599999999993  L 42.504466555664 0.592233444335918  C 19.1139938991682 0.592233444335889  0.152268080951927 19.5539592625522  0.152268080951927 42.9444334443359  C 0.152268080951927 66.3349076261196  19.1139938991682 85.2966334443359  42.5044680809519 85.2966334443359  C 65.8905034699375 85.2966334443359  84.8503901716035 66.3418345467523  84.856666555664 42.9558  C 84.8284823297276 19.5770100585917  65.8832564970723 0.631784225936372  42.504466555664 0.603599999999993  Z M 42.504466555664 55.3397834443359  C 39.5514878995702 50.1769377075136  35.2719622924864 45.8974121004298  30.1091165556641 42.9444334443359  C 35.2719622924864 39.9914547882421  39.5514878995702 35.7119291811583  42.504466555664 30.5490834443359  C 45.4574452117579 35.7119291811583  49.7369708188417 39.9914547882421  54.8998165556641 42.9444334443359  C 49.7369708188417 45.8974121004298  45.4574452117579 50.1769377075136  42.504466555664 55.3397834443359  Z " fill-rule="nonzero" fill="#e8d4ab" stroke="none" transform="matrix(1 0 0 1 238 170 )" />
  </g>
</svg>