<?xml version="1.0" encoding="utf-8"?>
<svg version="1.1" xmlns:xlink="http://www.w3.org/1999/xlink" width="27px" height="26px" xmlns="http://www.w3.org/2000/svg">
  <g transform="matrix(1 0 0 1 -295 -36 )">
    <path d="M 26.1597034229952 23.520492401123  L 15.5180031833444 13.0679779435105  L 26.1597034229952 2.6154634855375  C 26.6968697378699 2.08784679403828  26.6968697378699 1.21799224817461  26.1597034229952 0.690375557035938  L 26.1016313889447 0.633335914701954  C 25.56446507407 0.105719223202734  24.6788665545255 0.105719223202734  24.1417002396507 0.633335914701954  L 13.5 11.1001102828078  L 2.85829976034927 0.633335914701954  C 2.32113344547449 0.105719223202734  1.43553492593003 0.105719223202734  0.898368611055262 0.633335914701954  L 0.840296577004825 0.690375557035938  C 0.288612253342142 1.21799224853516  0.288612253342142 2.08784679439883  0.840296577004825 2.61546348589805  L 11.4819968166556 13.0679779435105  L 0.840296577004825 23.520492401123  C 0.303130262130055 24.0481090926223  0.303130262130055 24.9179636384859  0.840296577004825 25.4455803299852  L 0.898368611055262 25.5026199723191  C 1.43553492593003 26.0302366638184  2.32113344547449 26.0302366638184  2.85829976034927 25.5026199723191  L 13.5 15.0501055147066  L 24.1417002396507 25.5026199723191  C 24.6788665545255 26.0302366638184  25.56446507407 26.0302366638184  26.1016313889447 25.5026199723191  L 26.1597034229952 25.4455803299852  C 26.6968697378699 24.9179636384859  26.6968697378699 24.0481090926223  26.1597034229952 23.520492401123  Z " fill-rule="nonzero" fill="#ffffff" stroke="none" transform="matrix(1 0 0 1 295 36 )" />
  </g>
</svg>